# Blender 5.0.1
# www.blender.org
o Object_2
v 0.239530 0.363589 0.251862
v -0.000000 0.033900 0.000000
v -0.239530 0.363589 0.251862
v -0.019926 -0.027425 0.000000
v -0.019926 -0.434947 0.251862
v -0.407498 -0.153353 0.251862
v 0.032240 0.010476 0.000000
v 0.271771 0.340165 0.251862
v 0.419813 -0.115452 0.251862
v -0.032240 0.010476 0.000000
v -0.419813 -0.115452 0.251862
v -0.271771 0.340165 0.251862
v 0.439738 -0.108978 0.285762
v 0.291697 0.346639 0.285762
v 0.439738 0.142877 0.693286
v 0.271771 0.374065 0.306713
v 0.032240 0.451897 0.714238
v 0.419813 0.170303 0.714238
v 0.239531 0.384541 0.285762
v -0.239531 0.384541 0.285762
v -0.000000 0.462372 0.693286
v 0.439738 -0.142877 0.306714
v 0.439738 0.108978 0.714238
v 0.291697 -0.346639 0.714238
v -0.000000 -0.462372 0.306714
v 0.239531 -0.384541 0.714238
v -0.239531 -0.384541 0.714238
v -0.439738 -0.142877 0.306714
v -0.291697 -0.346639 0.714238
v -0.439738 0.108978 0.714238
v 0.032240 -0.451897 0.285762
v 0.419813 -0.170303 0.285762
v 0.271771 -0.374065 0.693287
v -0.419813 -0.170303 0.285762
v -0.032240 -0.451897 0.285762
v -0.271771 -0.374065 0.693287
v -0.291697 0.346639 0.285762
v -0.439738 -0.108978 0.285762
v -0.439738 0.142877 0.693286
v -0.271771 0.374065 0.306713
v -0.419813 0.170303 0.714238
v -0.032240 0.451897 0.714238
v 0.407498 0.153353 0.748138
v 0.019926 0.434947 0.748138
v 0.019926 0.027425 1.000000
v 0.271771 -0.340165 0.748138
v 0.419813 0.115452 0.748138
v 0.032240 -0.010476 1.000000
v -0.239530 -0.363589 0.748138
v 0.239530 -0.363589 0.748138
v -0.000000 -0.033900 1.000000
v -0.419813 0.115452 0.748138
v -0.271771 -0.340165 0.748138
v -0.032240 -0.010476 1.000000
v -0.019926 0.434947 0.748138
v -0.407498 0.153353 0.748138
v -0.019926 0.027425 1.000000
v 0.019926 -0.027425 0.000000
v 0.407498 -0.153353 0.251862
v 0.019926 -0.434947 0.251862
v 0.425320 0.138193 0.723607
v 0.419813 0.115452 0.748138
v 0.439738 0.108978 0.714238
v 0.439738 0.142877 0.693286
v 0.419813 0.170303 0.714238
v 0.407498 0.153353 0.748138
v 0.262860 -0.361800 0.723608
v 0.239530 -0.363589 0.748138
v 0.239531 -0.384541 0.714238
v 0.271771 -0.374065 0.693287
v 0.291697 -0.346639 0.714238
v 0.271771 -0.340165 0.748138
v -0.262860 -0.361800 0.723608
v -0.271771 -0.340165 0.748138
v -0.291697 -0.346639 0.714238
v -0.271771 -0.374065 0.693287
v -0.239531 -0.384541 0.714238
v -0.239530 -0.363589 0.748138
v -0.425320 0.138193 0.723608
v -0.407498 0.153353 0.748138
v -0.419813 0.170303 0.714238
v -0.439738 0.142877 0.693286
v -0.439738 0.108978 0.714238
v -0.419813 0.115452 0.748138
v -0.000000 0.447212 0.723607
v 0.019926 0.434947 0.748138
v 0.032240 0.451897 0.714238
v -0.000000 0.462372 0.693286
v -0.032240 0.451897 0.714238
v -0.019926 0.434947 0.748138
v -0.000000 0.000000 1.000000
v -0.000000 -0.033900 1.000000
v 0.032240 -0.010476 1.000000
v 0.019926 0.027425 1.000000
v -0.019926 0.027425 1.000000
v -0.032240 -0.010476 1.000000
v 0.425320 -0.138193 0.276393
v 0.419813 -0.170303 0.285762
v 0.407498 -0.153353 0.251862
v 0.419813 -0.115452 0.251862
v 0.439738 -0.108978 0.285762
v 0.439738 -0.142877 0.306714
v -0.000000 -0.447212 0.276393
v -0.032240 -0.451897 0.285762
v -0.019926 -0.434947 0.251862
v 0.019926 -0.434947 0.251862
v 0.032240 -0.451897 0.285762
v -0.000000 -0.462372 0.306714
v -0.425320 -0.138193 0.276393
v -0.439738 -0.108978 0.285762
v -0.419813 -0.115452 0.251862
v -0.407498 -0.153353 0.251862
v -0.419813 -0.170303 0.285762
v -0.439738 -0.142877 0.306714
v -0.262860 0.361800 0.276392
v -0.271771 0.374065 0.306713
v -0.239531 0.384541 0.285762
v -0.239530 0.363589 0.251862
v -0.271771 0.340165 0.251862
v -0.291697 0.346639 0.285762
v 0.262860 0.361800 0.276392
v 0.271771 0.340165 0.251862
v 0.239530 0.363589 0.251862
v 0.239531 0.384541 0.285762
v 0.271771 0.374065 0.306713
v 0.291697 0.346639 0.285762
v -0.000000 0.000000 0.000000
v 0.032240 0.010476 0.000000
v 0.019926 -0.027425 0.000000
v -0.019926 -0.027425 0.000000
v -0.032240 0.010476 0.000000
v -0.000000 0.033900 0.000000
v 0.407498 -0.153353 0.251862
v 0.019926 -0.027425 0.000000
v 0.032240 0.010476 0.000000
v 0.419813 -0.115452 0.251862
v -0.000000 0.033900 0.000000
v 0.239530 0.363589 0.251862
v 0.271771 0.340165 0.251862
v 0.032240 0.010476 0.000000
v 0.291697 0.346639 0.285762
v 0.439738 -0.108978 0.285762
v 0.419813 -0.115452 0.251862
v 0.271771 0.340165 0.251862
v -0.239531 0.384541 0.285762
v 0.239531 0.384541 0.285762
v 0.239530 0.363589 0.251862
v -0.239530 0.363589 0.251862
v -0.032240 0.010476 0.000000
v -0.271771 0.340165 0.251862
v -0.239530 0.363589 0.251862
v -0.000000 0.033900 0.000000
v -0.019926 -0.434947 0.251862
v -0.019926 -0.027425 0.000000
v 0.019926 -0.027425 0.000000
v 0.019926 -0.434947 0.251862
v 0.419813 -0.170303 0.285762
v 0.032240 -0.451897 0.285762
v 0.019926 -0.434947 0.251862
v 0.407498 -0.153353 0.251862
v -0.419813 -0.115452 0.251862
v -0.032240 0.010476 0.000000
v -0.019926 -0.027425 0.000000
v -0.407498 -0.153353 0.251862
v -0.032240 -0.451897 0.285762
v -0.419813 -0.170303 0.285762
v -0.407498 -0.153353 0.251862
v -0.019926 -0.434947 0.251862
v -0.439738 -0.108978 0.285762
v -0.291697 0.346639 0.285762
v -0.271771 0.340165 0.251862
v -0.419813 -0.115452 0.251862
v 0.032240 0.451897 0.714238
v 0.271771 0.374065 0.306713
v 0.239531 0.384541 0.285762
v -0.000000 0.462372 0.693286
v -0.271771 0.374065 0.306713
v -0.032240 0.451897 0.714238
v -0.000000 0.462372 0.693286
v -0.239531 0.384541 0.285762
v 0.439738 0.108978 0.714238
v 0.439738 -0.142877 0.306714
v 0.439738 -0.108978 0.285762
v 0.439738 0.142877 0.693286
v 0.271771 0.374065 0.306713
v 0.419813 0.170303 0.714238
v 0.439738 0.142877 0.693286
v 0.291697 0.346639 0.285762
v 0.239531 -0.384541 0.714238
v -0.000000 -0.462372 0.306714
v 0.032240 -0.451897 0.285762
v 0.271771 -0.374065 0.693287
v 0.439738 -0.142877 0.306714
v 0.291697 -0.346639 0.714238
v 0.271771 -0.374065 0.693287
v 0.419813 -0.170303 0.285762
v -0.291697 -0.346639 0.714238
v -0.439738 -0.142877 0.306714
v -0.419813 -0.170303 0.285762
v -0.271771 -0.374065 0.693287
v -0.000000 -0.462372 0.306714
v -0.239531 -0.384541 0.714238
v -0.271771 -0.374065 0.693287
v -0.032240 -0.451897 0.285762
v -0.419813 0.170303 0.714238
v -0.271771 0.374065 0.306713
v -0.291697 0.346639 0.285762
v -0.439738 0.142877 0.693286
v -0.439738 -0.142877 0.306714
v -0.439738 0.108978 0.714238
v -0.439738 0.142877 0.693286
v -0.439738 -0.108978 0.285762
v 0.019926 0.434947 0.748138
v 0.407498 0.153353 0.748138
v 0.419813 0.170303 0.714238
v 0.032240 0.451897 0.714238
v 0.419813 0.115452 0.748138
v 0.271771 -0.340165 0.748138
v 0.291697 -0.346639 0.714238
v 0.439738 0.108978 0.714238
v 0.239530 -0.363589 0.748138
v -0.239530 -0.363589 0.748138
v -0.239531 -0.384541 0.714238
v 0.239531 -0.384541 0.714238
v -0.271771 -0.340165 0.748138
v -0.419813 0.115452 0.748138
v -0.439738 0.108978 0.714238
v -0.291697 -0.346639 0.714238
v -0.407498 0.153353 0.748138
v -0.019926 0.434947 0.748138
v -0.032240 0.451897 0.714238
v -0.419813 0.170303 0.714238
v 0.032240 -0.010476 1.000000
v 0.419813 0.115452 0.748138
v 0.407498 0.153353 0.748138
v 0.019926 0.027425 1.000000
v -0.019926 0.434947 0.748138
v -0.019926 0.027425 1.000000
v 0.019926 0.027425 1.000000
v 0.019926 0.434947 0.748138
v -0.000000 -0.033900 1.000000
v 0.239530 -0.363589 0.748138
v 0.271771 -0.340165 0.748138
v 0.032240 -0.010476 1.000000
v -0.032240 -0.010476 1.000000
v -0.271771 -0.340165 0.748138
v -0.239530 -0.363589 0.748138
v -0.000000 -0.033900 1.000000
v -0.019926 0.027425 1.000000
v -0.407498 0.153353 0.748138
v -0.419813 0.115452 0.748138
v -0.032240 -0.010476 1.000000
vn 0.2572 0.6977 -0.6686
vn -0.0000 0.3436 -0.9391
vn -0.2572 0.6977 -0.6686
vn -0.2019 -0.2780 -0.9391
vn -0.2019 -0.7156 -0.6687
vn -0.6182 -0.4132 -0.6686
vn 0.3269 0.1062 -0.9391
vn 0.5840 0.4602 -0.6687
vn 0.7430 -0.0291 -0.6686
vn -0.3268 0.1062 -0.9391
vn -0.7430 -0.0291 -0.6686
vn -0.5840 0.4602 -0.6687
vn 0.9450 0.0365 -0.3250
vn 0.7860 0.5259 -0.3250
vn 0.9450 0.3070 0.1125
vn 0.5840 0.8039 -0.1125
vn 0.3269 0.8874 0.3250
vn 0.7430 0.5850 0.3250
vn 0.2572 0.9101 -0.3250
vn -0.2572 0.9101 -0.3250
vn -0.0000 0.9936 0.1126
vn 0.9450 -0.3070 -0.1125
vn 0.9450 -0.0365 0.3250
vn 0.7860 -0.5259 0.3250
vn -0.0000 -0.9936 -0.1126
vn 0.2572 -0.9101 0.3250
vn -0.2572 -0.9101 0.3250
vn -0.9450 -0.3070 -0.1125
vn -0.7860 -0.5259 0.3250
vn -0.9450 -0.0365 0.3250
vn 0.3269 -0.8874 -0.3250
vn 0.7430 -0.5850 -0.3250
vn 0.5840 -0.8039 0.1125
vn -0.7430 -0.5850 -0.3250
vn -0.3269 -0.8874 -0.3250
vn -0.5840 -0.8039 0.1125
vn -0.7860 0.5259 -0.3250
vn -0.9450 0.0365 -0.3250
vn -0.9450 0.3070 0.1125
vn -0.5840 0.8039 -0.1125
vn -0.7430 0.5850 0.3250
vn -0.3269 0.8874 0.3250
vn 0.6182 0.4132 0.6686
vn 0.2019 0.7156 0.6687
vn 0.2019 0.2780 0.9391
vn 0.5840 -0.4602 0.6687
vn 0.7430 0.0291 0.6686
vn 0.3269 -0.1062 0.9391
vn -0.2572 -0.6977 0.6686
vn 0.2572 -0.6977 0.6686
vn -0.0000 -0.3436 0.9391
vn -0.7430 0.0291 0.6686
vn -0.5840 -0.4602 0.6687
vn -0.3268 -0.1062 0.9391
vn -0.2019 0.7156 0.6687
vn -0.6182 0.4132 0.6686
vn -0.2019 0.2780 0.9391
vn 0.2019 -0.2780 -0.9391
vn 0.6182 -0.4132 -0.6686
vn 0.2019 -0.7156 -0.6687
vn 0.8507 0.2764 0.4472
vn 0.7431 0.0291 0.6686
vn 0.9450 0.3070 0.1126
vn 0.6183 0.4132 0.6686
vn 0.5257 -0.7236 0.4472
vn 0.2572 -0.9100 0.3250
vn 0.5840 -0.8039 0.1126
vn 0.5840 -0.4603 0.6686
vn -0.5257 -0.7236 0.4472
vn -0.5840 -0.4603 0.6686
vn -0.7860 -0.5260 0.3250
vn -0.5840 -0.8039 0.1126
vn -0.2572 -0.9100 0.3250
vn -0.8507 0.2764 0.4472
vn -0.6183 0.4132 0.6686
vn -0.9450 0.3070 0.1126
vn -0.0000 0.8944 0.4472
vn 0.2019 0.7157 0.6686
vn 0.3268 0.8875 0.3250
vn -0.3268 0.8874 0.3251
vn -0.2019 0.7157 0.6686
vn -0.0000 -0.0000 1.0000
vn 0.3268 -0.1062 0.9391
vn -0.3267 -0.1062 0.9391
vn 0.8507 -0.2764 -0.4472
vn 0.6183 -0.4132 -0.6686
vn 0.7431 -0.0291 -0.6686
vn 0.9450 -0.3070 -0.1126
vn -0.0000 -0.8944 -0.4472
vn -0.3268 -0.8874 -0.3251
vn -0.2019 -0.7157 -0.6686
vn 0.2019 -0.7157 -0.6686
vn 0.3268 -0.8875 -0.3250
vn -0.8507 -0.2764 -0.4472
vn -0.6183 -0.4132 -0.6686
vn -0.7431 -0.5850 -0.3250
vn -0.9450 -0.3070 -0.1126
vn -0.5257 0.7236 -0.4472
vn -0.5840 0.8039 -0.1126
vn -0.2572 0.9100 -0.3250
vn -0.5840 0.4603 -0.6686
vn -0.7860 0.5260 -0.3250
vn 0.5257 0.7236 -0.4472
vn 0.5840 0.4603 -0.6686
vn 0.2572 0.9100 -0.3250
vn 0.5840 0.8039 -0.1126
vn -0.0000 -0.0000 -1.0000
vn 0.3268 0.1062 -0.9391
vn -0.3267 0.1062 -0.9391
vn 0.6182 -0.4132 -0.6687
vn 0.3268 0.1063 -0.9391
vn 0.7431 -0.0290 -0.6686
vn 0.5841 0.4602 -0.6686
vn 0.2571 0.6977 -0.6686
vn -0.2572 0.6978 -0.6686
vn -0.3268 0.1063 -0.9391
vn -0.2572 0.6977 -0.6687
vn -0.2018 -0.2780 -0.9391
vn 0.2019 -0.2781 -0.9391
vn 0.7430 -0.5850 -0.3251
vn 0.3268 -0.8874 -0.3251
vn 0.2020 -0.7156 -0.6686
vn -0.7430 -0.0291 -0.6687
vn -0.2020 -0.2780 -0.9391
vn -0.6182 -0.4132 -0.6687
vn -0.7430 -0.5850 -0.3251
vn -0.6182 -0.4133 -0.6686
vn -0.7431 -0.0290 -0.6686
vn 0.0001 0.9936 0.1126
vn -0.3268 0.8875 0.3250
vn -0.0001 0.9936 0.1126
vn 0.7431 0.5850 0.3250
vn 0.0001 -0.9936 -0.1126
vn 0.7431 -0.5850 -0.3250
vn -0.7860 -0.5259 0.3249
vn -0.9450 -0.3071 -0.1126
vn -0.7430 -0.5851 -0.3250
vn -0.0001 -0.9936 -0.1126
vn -0.3268 -0.8875 -0.3250
vn -0.7430 0.5851 0.3250
vn -0.9450 0.3071 0.1126
vn 0.2020 0.7156 0.6687
vn 0.7430 0.5850 0.3251
vn 0.3268 0.8874 0.3251
vn 0.7431 0.0290 0.6686
vn 0.5841 -0.4602 0.6686
vn 0.2571 -0.6977 0.6686
vn -0.2572 -0.6978 0.6686
vn -0.7431 0.0290 0.6686
vn -0.6182 0.4133 0.6686
vn -0.7430 0.5850 0.3251
vn 0.6182 0.4132 0.6687
vn -0.2018 0.2780 0.9391
vn 0.2019 0.2781 0.9391
vn 0.3268 -0.1063 0.9391
vn -0.3268 -0.1063 0.9391
vn -0.2572 -0.6977 0.6687
vn -0.2020 0.2780 0.9391
vn -0.6182 0.4132 0.6687
vn -0.7430 0.0291 0.6687
vt 0.411875 0.649922
vt 0.592997 0.754496
vt 0.592997 0.545352
vt 0.790621 0.547368
vt 0.612990 0.649923
vt 0.790621 0.752477
vt 0.392065 0.292270
vt 0.392065 0.087160
vt 0.214436 0.189715
vt 0.807045 0.880028
vt 0.992504 0.987102
vt 0.992504 0.772953
vt 0.591345 0.522375
vt 0.591345 0.317266
vt 0.413713 0.419822
vt 0.214439 0.880028
vt 0.392071 0.982582
vt 0.392071 0.777471
vt 0.792899 0.083209
vt 0.608428 0.189711
vt 0.792899 0.296221
vt 0.591345 0.777470
vt 0.413716 0.880027
vt 0.591345 0.982582
vt 0.192791 0.292269
vt 0.192791 0.087159
vt 0.015162 0.189710
vt 0.192791 0.522375
vt 0.192791 0.317263
vt 0.015162 0.419817
vt 0.192794 0.752478
vt 0.192794 0.547368
vt 0.015162 0.649924
vt 0.392071 0.752478
vt 0.392071 0.547368
vt 0.214439 0.649922
vt 0.392068 0.317263
vt 0.214439 0.419817
vt 0.392068 0.522375
vt 0.015162 0.880026
vt 0.192794 0.982582
vt 0.192794 0.777471
vt 0.792779 0.986321
vt 0.792779 0.773733
vt 0.608672 0.880029
vt 0.991791 0.083875
vt 0.808469 0.189716
vt 0.991791 0.295557
vt 0.811356 0.649925
vt 0.993837 0.755279
vt 0.993837 0.544566
vt 0.816529 0.419821
vt 0.994158 0.522375
vt 0.994158 0.317266
vt 0.793169 0.312849
vt 0.607892 0.419821
vt 0.793169 0.526790
vt 0.415178 0.189720
vt 0.592808 0.292273
vt 0.592808 0.087163
vt 0.479706 0.035200
vt 0.479706 0.049715
vt 0.493509 0.039686
vt 0.488237 0.023458
vt 0.471175 0.023458
vt 0.465902 0.039685
vt 0.479706 0.049714
vt 0.493509 0.039685
vt 0.493510 0.039685
vt 0.465903 0.039685
vt 0.479706 0.035201
vt 0.471175 0.023459
vt 0.465902 0.039686
vt 0.488237 0.023459
vt 0.479706 0.035202
vt 0.493510 0.039687
vt 0.465903 0.039687
vt 0.479707 0.049716
vt 0.479706 0.049716
vt 0.488237 0.023460
vt 0.471175 0.023460
vt 0.479707 0.035202
vt 0.471176 0.023460
vt 0.488238 0.023460
vt 0.255913 0.016573
vt 0.050803 0.016573
vt 0.050804 0.033635
vt 0.255913 0.033635
vt 0.050944 0.033653
vt 0.256053 0.033653
vt 0.256053 0.016591
vt 0.050944 0.016591
vt 0.050804 0.033636
vt 0.255912 0.033636
vt 0.255912 0.016574
vt 0.050804 0.016574
vt 0.255911 0.033636
vt 0.255911 0.016573
vt 0.050804 0.016573
vt 0.050944 0.033654
vt 0.256058 0.016592
vt 0.050948 0.016592
vt 0.050948 0.033654
vt 0.256058 0.033654
vt 0.050896 0.033649
vt 0.256007 0.033649
vt 0.256007 0.016587
vt 0.050896 0.016587
vt 0.050799 0.033635
vt 0.255909 0.033635
vt 0.255909 0.016573
vt 0.050799 0.016573
vt 0.050897 0.016587
vt 0.255912 0.016573
vt 0.050943 0.033654
vt 0.256054 0.033653
vt 0.256054 0.016591
vt 0.255914 0.033636
vt 0.255914 0.016573
vt 0.050805 0.033636
vt 0.255916 0.033636
vt 0.255916 0.016574
vt 0.050947 0.033654
vt 0.050798 0.033635
vt 0.050798 0.016573
vt 0.050899 0.033649
vt 0.256011 0.033649
vt 0.256011 0.016587
vt 0.050899 0.016587
vt 0.256059 0.033654
vt 0.256059 0.016592
vt 0.256056 0.016591
vt 0.256056 0.033654
vt 0.255914 0.016574
vt 0.255915 0.033636
vt 0.256054 0.016592
vt 0.050947 0.016592
vt 0.256054 0.033654
vt 0.256055 0.033654
vt 0.256055 0.016592
vt 0.255915 0.016574
vt 0.050805 0.016574
vt 0.255914 0.033635
vt 0.050800 0.016573
vt 0.050800 0.033635
vt 0.255913 0.033636
s 1
f 1/1/1 2/2/2 3/3/3
f 4/4/4 5/5/5 6/6/6
f 7/7/7 8/8/8 9/9/9
f 10/10/10 11/11/11 12/12/12
f 13/13/13 14/14/14 15/15/15
f 16/16/16 17/17/17 18/18/18
f 19/19/19 20/20/20 21/21/21
f 22/22/22 23/23/23 24/24/24
f 25/25/25 26/26/26 27/27/27
f 28/28/28 29/29/29 30/30/30
f 31/31/31 32/32/32 33/33/33
f 34/34/34 35/35/35 36/36/36
f 37/37/37 38/38/38 39/39/39
f 40/40/40 41/41/41 42/42/42
f 43/43/43 44/44/44 45/45/45
f 46/46/46 47/47/47 48/48/48
f 49/49/49 50/50/50 51/51/51
f 52/52/52 53/53/53 54/54/54
f 55/55/55 56/56/56 57/57/57
f 58/58/58 59/59/59 60/60/60
f 61/61/61 62/62/62 63/63/23
f 61/61/61 63/63/23 64/64/63
f 61/61/61 64/64/63 65/65/18
f 61/61/61 65/65/18 66/66/64
f 61/61/61 66/66/64 62/62/62
f 67/61/65 68/67/50 69/68/66
f 67/61/65 69/68/66 70/64/67
f 67/61/65 70/64/67 71/65/24
f 67/61/65 71/65/24 72/66/68
f 67/61/65 72/66/68 68/67/50
f 73/61/69 74/69/70 75/64/71
f 73/61/69 75/64/71 76/65/72
f 73/61/69 76/65/72 77/66/73
f 73/61/69 77/66/73 78/67/49
f 73/61/69 78/67/49 74/69/70
f 79/61/74 80/69/75 81/64/41
f 79/61/74 81/64/41 82/65/76
f 79/61/74 82/65/76 83/70/30
f 79/61/74 83/70/30 84/67/52
f 79/61/74 84/67/52 80/69/75
f 85/61/77 86/65/78 87/70/79
f 85/61/77 87/70/79 88/62/21
f 85/61/77 88/62/21 89/68/80
f 85/61/77 89/68/80 90/64/81
f 85/61/77 90/64/81 86/65/78
f 91/71/82 92/72/51 93/73/83
f 91/71/82 93/73/83 94/62/45
f 91/71/82 94/62/45 95/63/57
f 91/71/82 95/63/57 96/74/84
f 91/71/82 96/74/84 92/72/51
f 97/71/85 98/65/32 99/66/86
f 97/71/85 99/66/86 100/62/87
f 97/71/85 100/62/87 101/63/13
f 97/71/85 101/63/13 102/64/88
f 97/71/85 102/64/88 98/65/32
f 103/75/89 104/76/90 105/74/91
f 103/75/89 105/74/91 106/72/92
f 103/75/89 106/72/92 107/77/93
f 103/75/89 107/77/93 108/78/25
f 103/75/89 108/78/25 104/76/90
f 109/75/94 110/77/38 111/79/11
f 109/75/94 111/79/11 112/76/95
f 109/75/94 112/76/95 113/80/96
f 109/75/94 113/80/96 114/81/97
f 109/75/94 114/81/97 110/77/38
f 115/61/98 116/65/99 117/70/100
f 115/61/98 117/70/100 118/67/3
f 115/61/98 118/67/3 119/69/101
f 115/61/98 119/69/101 120/64/102
f 115/61/98 120/64/102 116/65/99
f 121/71/103 122/73/104 123/62/1
f 121/71/103 123/62/1 124/63/105
f 121/71/103 124/63/105 125/74/106
f 121/71/103 125/74/106 126/72/14
f 121/71/103 126/72/14 122/73/104
f 127/82/107 128/83/108 129/77/58
f 127/82/107 129/77/58 130/78/4
f 127/82/107 130/78/4 131/76/109
f 127/82/107 131/76/109 132/84/2
f 127/82/107 132/84/2 128/83/108
f 133/85/110 134/86/58 135/87/108
f 133/85/110 135/87/108 136/88/9
f 137/89/2 138/90/1 139/91/8
f 137/89/2 139/91/8 140/92/111
f 141/93/14 142/94/13 143/95/112
f 141/93/14 143/95/112 144/96/113
f 145/93/20 146/97/19 147/98/114
f 145/93/20 147/98/114 148/99/115
f 149/91/116 150/92/12 151/100/117
f 149/91/116 151/100/117 152/90/2
f 153/101/5 154/102/118 155/103/119
f 153/101/5 155/103/119 156/104/92
f 157/105/120 158/106/121 159/107/122
f 157/105/120 159/107/122 160/108/59
f 161/109/123 162/110/10 163/111/124
f 161/109/123 163/111/124 164/112/125
f 165/105/35 166/106/126 167/107/127
f 165/105/35 167/107/127 168/113/91
f 169/93/38 170/94/37 171/114/12
f 169/93/38 171/114/12 172/99/128
f 173/115/79 174/116/106 175/117/19
f 173/115/79 175/117/19 176/92/129
f 177/105/99 178/106/130 179/107/131
f 177/105/99 179/107/131 180/108/20
f 181/93/23 182/118/88 183/119/13
f 181/93/23 183/119/13 184/99/63
f 185/120/106 186/121/132 187/122/63
f 185/120/106 187/122/63 188/99/14
f 189/101/26 190/102/133 191/123/93
f 189/101/26 191/123/93 192/104/67
f 193/124/88 194/110/24 195/111/67
f 193/124/88 195/111/67 196/125/134
f 197/126/135 198/127/136 199/128/137
f 197/126/135 199/128/137 200/129/72
f 201/103/138 202/130/27 203/131/72
f 201/103/138 203/131/72 204/102/139
f 205/132/140 206/92/99 207/100/37
f 205/132/140 207/100/37 208/133/141
f 209/93/97 210/118/30 211/85/76
f 209/93/97 211/85/76 212/86/38
f 213/134/142 214/96/43 215/93/143
f 213/134/142 215/93/143 216/135/144
f 217/126/145 218/106/146 219/107/24
f 217/126/145 219/107/24 220/129/23
f 221/136/147 222/137/148 223/123/27
f 221/136/147 223/123/27 224/138/26
f 225/123/53 226/139/149 227/140/30
f 225/123/53 227/140/30 228/137/29
f 229/93/150 230/135/81 231/141/42
f 229/93/150 231/141/42 232/96/151
f 233/134/83 234/142/47 235/93/152
f 233/134/83 235/93/152 236/118/45
f 237/93/55 238/143/153 239/119/154
f 237/93/55 239/119/154 240/99/78
f 241/93/51 242/118/50 243/134/46
f 241/93/51 243/134/46 244/96/155
f 245/111/156 246/144/53 247/145/157
f 245/111/156 247/145/157 248/110/51
f 249/93/158 250/146/159 251/85/160
f 249/93/158 251/85/160 252/99/54
