# Blender 5.0.1
# www.blender.org
o Object_2
v -0.471242 -0.196366 -0.000000
v -0.471242 0.196366 -0.000000
v 0.471242 0.196366 0.000000
v 0.471242 -0.196366 0.000000
v -0.408070 0.156953 0.220522
v -0.408070 -0.156953 0.220522
v 0.408069 -0.156953 0.220522
v 0.408069 0.156953 0.220522
v 0.492865 0.192175 0.023472
v 0.440109 0.161150 0.197057
v 0.440109 -0.161150 0.197057
v 0.492865 -0.192175 0.023472
v -0.464520 0.222638 0.023472
v -0.414792 0.186696 0.197057
v 0.414792 0.186696 0.197057
v 0.464520 0.222638 0.023472
v -0.492865 -0.192175 0.023472
v -0.440109 -0.161150 0.197057
v -0.440109 0.161150 0.197057
v -0.492865 0.192175 0.023472
v 0.464520 -0.222638 0.023472
v 0.414792 -0.186696 0.197057
v -0.414792 -0.186696 0.197057
v -0.464520 -0.222638 0.023472
v -0.500000 -0.196366 -0.000000
v -0.500000 0.196366 -0.000000
v 0.500000 0.196366 0.000000
v 0.500000 -0.196366 0.000000
v -0.432974 0.156953 0.220522
v -0.432974 -0.156953 0.220522
v 0.432974 -0.156953 0.220522
v 0.432974 0.156953 0.220522
v -0.492865 0.222638 0.023472
v -0.440109 0.186696 0.197057
v 0.440109 0.186696 0.197057
v 0.492865 0.222638 0.023472
v 0.492865 -0.222638 0.023472
v 0.440109 -0.186696 0.197057
v -0.440109 -0.186696 0.197057
v -0.492865 -0.222638 0.023472
v -0.471242 0.227498 -0.000000
v 0.471242 0.227498 0.000000
v 0.471242 -0.227498 0.000000
v -0.471242 -0.227498 -0.000000
v -0.408070 -0.181836 0.220522
v 0.408069 -0.181836 0.220522
v 0.408069 0.181836 0.220522
v -0.408070 0.181836 0.220522
v 0.492865 0.222638 0.023472
v 0.440109 0.186696 0.197057
v 0.440109 -0.186696 0.197057
v 0.492865 -0.222638 0.023472
v -0.492865 -0.222638 0.023472
v -0.440109 -0.186696 0.197057
v -0.440109 0.186696 0.197057
v -0.492865 0.222638 0.023472
v -0.500000 0.227498 -0.000000
v -0.500000 -0.227498 -0.000000
v 0.500000 -0.227498 0.000000
v 0.500000 0.227498 0.000000
v -0.432974 -0.181836 0.220522
v -0.432974 0.181836 0.220522
v 0.432974 0.181836 0.220522
v 0.432974 -0.181836 0.220522
v 0.500000 -0.196366 0.000000
v 0.500000 0.196366 0.000000
v 0.471242 0.227498 0.000000
v -0.471242 0.227498 -0.000000
v -0.500000 0.196366 -0.000000
v -0.500000 -0.196366 -0.000000
v -0.500000 0.227498 -0.000000
v 0.500000 0.227498 0.000000
v 0.500000 0.227498 0.000000
v 0.500000 -0.227498 0.000000
v -0.500000 -0.227498 -0.000000
v -0.500000 0.227498 -0.000000
vn -0.0000 -0.0000 -1.0000
vn -0.0000 -0.0000 1.0000
vn 0.9568 -0.0000 0.2908
vn -0.0000 0.9792 0.2028
vn -0.9568 -0.0000 0.2908
vn -0.0000 -0.9792 0.2028
vn -0.8011 -0.0000 -0.5985
vn 0.8011 -0.0000 -0.5985
vn -0.5938 -0.0000 0.8046
vn 0.5938 -0.0000 0.8046
vn -0.6556 0.6747 0.3390
vn 0.6556 0.6747 0.3390
vn 0.6556 -0.6747 0.3390
vn -0.6557 -0.6747 0.3390
vn -0.6556 -0.6747 0.3390
vn -0.0000 0.7755 -0.6314
vn -0.0000 -0.7755 -0.6314
vn -0.0000 -0.6313 0.7755
vn -0.0000 0.6313 0.7755
vn 0.6556 0.6748 0.3390
vn 0.6556 0.6748 0.3389
vn 0.9568 -0.0000 0.2909
vn 0.6556 -0.6748 0.3390
vn 0.6556 -0.6748 0.3389
vn -0.6556 -0.6748 0.3390
vn -0.6556 -0.6748 0.3389
vn -0.9568 -0.0000 0.2909
vn -0.6556 0.6748 0.3390
vn -0.6556 0.6748 0.3389
vn -0.6443 0.6187 -0.4496
vn -0.6443 -0.6187 -0.4495
vn 0.6443 -0.6187 -0.4495
vn 0.6443 0.6186 -0.4496
vn -0.4815 -0.5214 0.7044
vn -0.4815 0.5214 0.7045
vn 0.4815 0.5214 0.7044
vn 0.4815 -0.5214 0.7045
vn -0.6443 0.6187 -0.4495
vn 0.6443 0.6187 -0.4495
vn 0.6443 0.6188 -0.4494
vn -0.6443 -0.6188 -0.4494
vt 0.637400 0.845400
vt 0.926800 0.845400
vt 0.926800 0.155200
vt 0.637400 0.155200
vt 0.202400 0.799200
vt 0.433700 0.799200
vt 0.433700 0.201400
vt 0.202400 0.201400
vt 0.176400 0.038000
vt 0.199300 0.165900
vt 0.436800 0.165900
vt 0.459600 0.038000
vt 0.038800 0.840500
vt 0.166700 0.804100
vt 0.166700 0.196500
vt 0.038800 0.160100
vt 0.459600 0.962600
vt 0.436800 0.834700
vt 0.199300 0.834700
vt 0.176400 0.962600
vt 0.597200 0.160100
vt 0.469300 0.196500
vt 0.469300 0.804100
vt 0.597200 0.840500
vt 0.637400 0.866500
vt 0.926800 0.866500
vt 0.926800 0.134100
vt 0.637400 0.134100
vt 0.202400 0.817400
vt 0.433700 0.817400
vt 0.433700 0.183200
vt 0.202400 0.183200
vt 0.038800 0.861300
vt 0.166700 0.822600
vt 0.166700 0.178000
vt 0.038800 0.139300
vt 0.597200 0.139300
vt 0.469300 0.178000
vt 0.469300 0.822600
vt 0.597200 0.861300
vt 0.949800 0.845400
vt 0.949800 0.155200
vt 0.614500 0.155200
vt 0.614500 0.845400
vt 0.452000 0.799200
vt 0.452000 0.201400
vt 0.184000 0.201400
vt 0.184000 0.799200
vt 0.154000 0.038000
vt 0.180500 0.165900
vt 0.455600 0.165900
vt 0.482100 0.038000
vt 0.482100 0.962600
vt 0.455600 0.834700
vt 0.180500 0.834700
vt 0.154000 0.962600
vt 0.949800 0.866500
vt 0.614500 0.866500
vt 0.614500 0.134100
vt 0.949800 0.134100
vt 0.452000 0.817400
vt 0.184000 0.817400
vt 0.184000 0.183200
vt 0.452000 0.183200
vt 0.462700 0.020700
vt 0.173300 0.020700
vt 0.021500 0.155200
vt 0.021500 0.845400
vt 0.173300 0.979900
vt 0.462700 0.979900
vt 0.021500 0.866500
vt 0.021500 0.134100
vt 0.150400 0.020700
vt 0.485700 0.020700
vt 0.485700 0.979900
vt 0.150400 0.979900
s 0
f 1/1/1 2/2/1 3/3/1
f 1/1/1 3/3/1 4/4/1
f 5/5/2 6/6/2 7/7/2
f 5/5/2 7/7/2 8/8/2
f 9/9/3 10/10/3 11/11/3
f 9/9/3 11/11/3 12/12/3
f 13/13/4 14/14/4 15/15/4
f 13/13/4 15/15/4 16/16/4
f 17/17/5 18/18/5 19/19/5
f 17/17/5 19/19/5 20/20/5
f 21/21/6 22/22/6 23/23/6
f 21/21/6 23/23/6 24/24/6
s 1
f 25/25/7 26/26/7 2/2/1
f 25/25/7 2/2/1 1/1/1
f 27/27/8 28/28/8 4/4/1
f 27/27/8 4/4/1 3/3/1
f 29/29/9 30/30/9 6/6/2
f 29/29/9 6/6/2 5/5/2
f 31/31/10 32/32/10 8/8/2
f 31/31/10 8/8/2 7/7/2
f 33/33/11 34/34/11 14/14/4
f 33/33/11 14/14/4 13/13/4
f 35/35/12 36/36/12 16/16/4
f 35/35/12 16/16/4 15/15/4
f 37/37/13 38/38/13 22/22/6
f 37/37/13 22/22/6 21/21/6
f 39/39/14 40/40/15 24/24/6
f 39/39/14 24/24/6 23/23/6
f 2/2/1 41/41/16 42/42/16
f 2/2/1 42/42/16 3/3/1
f 4/4/1 43/43/17 44/44/17
f 4/4/1 44/44/17 1/1/1
f 6/6/2 45/45/18 46/46/18
f 6/6/2 46/46/18 7/7/2
f 8/8/2 47/47/19 48/48/19
f 8/8/2 48/48/19 5/5/2
f 49/49/20 50/50/21 10/10/22
f 49/49/20 10/10/22 9/9/3
f 51/51/23 52/52/24 12/12/3
f 51/51/23 12/12/3 11/11/22
f 53/53/25 54/54/26 18/18/27
f 53/53/25 18/18/27 17/17/5
f 55/55/28 56/56/29 20/20/5
f 55/55/28 20/20/5 19/19/27
f 26/26/7 57/57/30 41/41/16
f 26/26/7 41/41/16 2/2/1
f 1/1/1 44/44/17 58/58/31
f 1/1/1 58/58/31 25/25/7
f 28/28/8 59/59/32 43/43/17
f 28/28/8 43/43/17 4/4/1
f 3/3/1 42/42/16 60/60/33
f 3/3/1 60/60/33 27/27/8
f 30/30/9 61/61/34 45/45/18
f 30/30/9 45/45/18 6/6/2
f 5/5/2 48/48/19 62/62/35
f 5/5/2 62/62/35 29/29/9
f 32/32/10 63/63/36 47/47/19
f 32/32/10 47/47/19 8/8/2
f 7/7/2 46/46/18 64/64/37
f 7/7/2 64/64/37 31/31/10
f 10/10/22 32/32/10 31/31/10
f 10/10/22 31/31/10 11/11/22
f 12/12/3 65/65/8 66/66/8
f 12/12/3 66/66/8 9/9/3
f 14/14/4 48/48/19 47/47/19
f 14/14/4 47/47/19 15/15/4
f 16/16/4 67/67/16 68/68/16
f 16/16/4 68/68/16 13/13/4
f 18/18/27 30/30/9 29/29/9
f 18/18/27 29/29/9 19/19/27
f 20/20/5 69/69/7 70/70/7
f 20/20/5 70/70/7 17/17/5
f 22/22/6 46/46/18 45/45/18
f 22/22/6 45/45/18 23/23/6
f 24/24/6 44/44/17 43/43/17
f 24/24/6 43/43/17 21/21/6
f 34/34/11 62/62/35 48/48/19
f 34/34/11 48/48/19 14/14/4
f 13/13/4 68/68/16 71/71/38
f 13/13/4 71/71/38 33/33/11
f 36/36/12 72/72/39 67/67/16
f 36/36/12 67/67/16 16/16/4
f 15/15/4 47/47/19 63/63/36
f 15/15/4 63/63/36 35/35/12
f 38/38/13 64/64/37 46/46/18
f 38/38/13 46/46/18 22/22/6
f 21/21/6 43/43/17 59/59/32
f 21/21/6 59/59/32 37/37/13
f 40/40/15 58/58/31 44/44/17
f 40/40/15 44/44/17 24/24/6
f 23/23/6 45/45/18 61/61/34
f 23/23/6 61/61/34 39/39/14
f 50/50/21 63/63/36 32/32/10
f 50/50/21 32/32/10 10/10/22
f 9/9/3 66/66/8 73/73/40
f 9/9/3 73/73/40 49/49/20
f 52/52/24 74/74/32 65/65/8
f 52/52/24 65/65/8 12/12/3
f 11/11/22 31/31/10 64/64/37
f 11/11/22 64/64/37 51/51/23
f 54/54/26 61/61/34 30/30/9
f 54/54/26 30/30/9 18/18/27
f 17/17/5 70/70/7 75/75/41
f 17/17/5 75/75/41 53/53/25
f 56/56/29 76/76/38 69/69/7
f 56/56/29 69/69/7 20/20/5
f 19/19/27 29/29/9 62/62/35
f 19/19/27 62/62/35 55/55/28
