# Blender 5.0.1
# www.blender.org
o Sphere001_Material.003_0
v -0.026359 0.478978 0.456847
v -0.027277 0.491273 0.456844
v -0.047159 0.481249 0.383514
v 0.001220 -0.476415 0.456842
v 0.002005 -0.488671 0.456840
v 0.021866 -0.478655 0.383549
v 0.001220 0.479006 0.456843
v 0.021869 0.481245 0.383539
v 0.002005 0.491262 0.456841
v -0.026359 -0.476387 0.456847
v -0.047156 -0.478659 0.383524
v -0.027277 -0.488682 0.456843
v 0.001339 0.456409 0.456844
v 0.037827 0.461240 0.324344
v 0.001434 0.391434 0.454678
v 0.066671 0.396311 0.215544
v 0.052735 0.431699 0.268091
v 0.001361 0.430159 0.456833
v 0.001549 0.300469 0.456823
v 0.090203 0.304466 0.126692
v 0.079107 0.352719 0.168597
v 0.001486 0.351328 0.457697
v 0.001636 0.189316 0.458693
v 0.106841 0.191958 0.063847
v 0.099322 0.249787 0.092252
v 0.001593 0.248767 0.455668
v 0.001682 0.065431 0.455679
v 0.115460 0.066459 0.031288
v 0.112027 0.129922 0.044259
v 0.001663 0.129388 0.456820
v 0.001686 0.001296 0.458696
v 0.001682 -0.062799 0.456820
v 0.115472 -0.063478 0.031243
v 0.116360 0.001294 0.027888
v 0.001663 -0.126796 0.455190
v 0.001636 -0.186685 0.456821
v 0.106885 -0.189018 0.063681
v 0.112026 -0.127337 0.044261
v 0.001593 -0.246176 0.458211
v 0.001547 -0.297822 0.456823
v 0.090239 -0.301454 0.126557
v 0.099323 -0.247188 0.092248
v 0.001487 -0.348737 0.455698
v 0.001436 -0.388938 0.458040
v 0.066845 -0.394286 0.214885
v 0.079093 -0.350185 0.168649
v 0.001361 -0.427568 0.456832
v 0.001339 -0.453785 0.456843
v 0.037807 -0.458524 0.324420
v 0.052752 -0.429073 0.268027
v -0.026253 -0.453784 0.456849
v -0.063121 -0.458525 0.324403
v -0.026045 -0.388938 0.458047
v -0.092181 -0.394286 0.214874
v -0.078081 -0.429074 0.268013
v -0.026155 -0.427567 0.456839
v -0.025899 -0.297822 0.456830
v -0.115585 -0.301454 0.126548
v -0.104436 -0.350185 0.168639
v -0.025972 -0.348736 0.455705
v -0.025794 -0.186684 0.456828
v -0.132236 -0.189019 0.063673
v -0.124671 -0.247189 0.092239
v -0.025843 -0.246176 0.458218
v -0.025742 -0.062799 0.456827
v -0.140825 -0.063478 0.031235
v -0.137378 -0.127337 0.044253
v -0.025763 -0.126796 0.455197
v -0.025737 0.001296 0.458703
v -0.025742 0.065431 0.455687
v -0.140813 0.066459 0.031280
v -0.141713 0.001294 0.027881
v -0.025764 0.129387 0.456827
v -0.025794 0.189316 0.458700
v -0.132192 0.191958 0.063839
v -0.137379 0.129922 0.044252
v -0.025843 0.248767 0.455675
v -0.025896 0.300469 0.456830
v -0.115550 0.304466 0.126683
v -0.124671 0.249787 0.092243
v -0.025972 0.351328 0.457704
v -0.026047 0.391434 0.454685
v -0.092008 0.396311 0.215533
v -0.104449 0.352719 0.168587
v -0.026155 0.430158 0.456839
v -0.026252 0.456408 0.456850
v -0.063141 0.461241 0.324326
v -0.078065 0.431700 0.268077
v -0.012690 0.470255 0.313798
v -0.054575 0.470302 0.319438
v -0.038463 0.490810 0.380207
v -0.012690 0.490767 0.376679
v -0.012690 0.404055 0.199035
v -0.083907 0.404099 0.208489
v -0.069712 0.440185 0.262075
v -0.012690 0.440139 0.254467
v -0.012690 0.310412 0.105311
v -0.107938 0.310196 0.117702
v -0.096572 0.359650 0.160618
v -0.012690 0.359612 0.149518
v -0.012690 0.195702 0.039016
v -0.124875 0.195535 0.053729
v -0.117185 0.254690 0.082768
v -0.012690 0.254667 0.068982
v -0.012690 0.067738 0.004671
v -0.133648 0.067676 0.020593
v -0.130144 0.132462 0.033830
v -0.012690 0.132452 0.018354
v -0.012690 -0.064753 0.004624
v -0.133660 -0.064691 0.020548
v -0.134564 0.001296 0.017136
v -0.012690 0.001296 0.001087
v -0.012690 -0.192758 0.038842
v -0.124919 -0.192593 0.053562
v -0.130142 -0.129870 0.033829
v -0.012690 -0.129861 0.018354
v -0.012690 -0.307396 0.105170
v -0.107975 -0.307170 0.117558
v -0.117181 -0.252098 0.082767
v -0.012690 -0.252076 0.068982
v -0.012690 -0.402037 0.198345
v -0.084084 -0.402080 0.207822
v -0.096566 -0.357059 0.160617
v -0.012690 -0.357021 0.149517
v -0.012690 -0.467538 0.313878
v -0.054549 -0.467585 0.319515
v -0.069706 -0.437594 0.262073
v -0.012690 -0.437548 0.254467
v -0.012690 -0.488176 0.376678
v -0.012690 -0.498704 0.456571
v -0.017958 -0.498634 0.456570
v -0.038461 -0.488219 0.380206
v 0.029174 -0.467585 0.319516
v 0.013084 -0.488219 0.380207
v 0.058708 -0.402080 0.207823
v 0.044330 -0.437594 0.262074
v 0.082596 -0.307170 0.117558
v 0.071191 -0.357059 0.160618
v 0.099540 -0.192593 0.053562
v 0.091806 -0.252098 0.082768
v 0.108281 -0.064691 0.020548
v 0.104765 -0.129870 0.033830
v 0.108269 0.067676 0.020594
v 0.109184 0.001296 0.017136
v 0.099495 0.195535 0.053729
v 0.104762 0.132462 0.033830
v 0.082558 0.310196 0.117702
v 0.091801 0.254690 0.082768
v 0.058522 0.404099 0.208488
v 0.071187 0.359650 0.160618
v 0.029191 0.470302 0.319438
v 0.044328 0.440185 0.262074
v -0.012690 0.501296 0.456572
v -0.007423 0.501225 0.456571
v 0.013080 0.490810 0.380207
v -0.017958 0.501225 0.456571
v -0.007422 -0.498634 0.456570
v -0.013941 -0.476887 0.466280
v -0.014944 -0.490158 0.466280
v -0.012690 -0.490192 0.466280
v -0.012608 -0.476493 0.466280
v -0.013819 -0.452826 0.466280
v -0.012487 -0.452826 0.466280
v -0.012428 -0.427078 0.466280
v -0.013760 -0.427078 0.466280
v -0.012336 -0.388436 0.467492
v -0.013667 -0.388436 0.467492
v -0.012275 -0.348470 0.465153
v -0.013606 -0.348470 0.465153
v -0.012208 -0.297553 0.466280
v -0.013539 -0.297553 0.466280
v -0.012156 -0.246026 0.467670
v -0.013488 -0.246026 0.467670
v -0.012111 -0.186541 0.466280
v -0.013443 -0.186541 0.466280
v -0.012082 -0.126727 0.464650
v -0.013414 -0.126727 0.464650
v -0.012062 -0.062756 0.466280
v -0.013393 -0.062756 0.466280
v -0.012057 0.001296 0.468156
v -0.013388 0.001296 0.468156
v -0.012062 0.065381 0.465139
v -0.013393 0.065381 0.465139
v -0.012082 0.129319 0.466280
v -0.013414 0.129319 0.466280
v -0.012111 0.189165 0.468152
v -0.013442 0.189165 0.468152
v -0.012157 0.248617 0.465126
v -0.013488 0.248617 0.465126
v -0.012206 0.300190 0.466280
v -0.013537 0.300190 0.466280
v -0.012275 0.351061 0.467152
v -0.013606 0.351061 0.467152
v -0.012338 0.390949 0.464130
v -0.013669 0.390949 0.464130
v -0.012429 0.429669 0.466280
v -0.013760 0.429669 0.466280
v -0.012487 0.455445 0.466280
v -0.013819 0.455445 0.466280
v -0.012608 0.479084 0.466280
v -0.013941 0.479478 0.466280
v -0.012690 0.492783 0.466280
v -0.014945 0.492749 0.466280
v -0.010323 -0.490157 0.466280
v -0.011188 -0.476784 0.466280
v -0.011066 -0.452826 0.466280
v -0.011007 -0.427078 0.466280
v -0.010914 -0.388436 0.467492
v -0.010853 -0.348470 0.465153
v -0.010786 -0.297553 0.466280
v -0.010735 -0.246026 0.467670
v -0.010689 -0.186541 0.466280
v -0.010661 -0.126727 0.464650
v -0.010640 -0.062756 0.466280
v -0.010635 0.001296 0.468156
v -0.010640 0.065381 0.465139
v -0.010661 0.129319 0.466280
v -0.010689 0.189165 0.468152
v -0.010735 0.248617 0.465126
v -0.010784 0.300190 0.466280
v -0.010853 0.351061 0.467152
v -0.010916 0.390949 0.464130
v -0.011007 0.429669 0.466280
v -0.011066 0.455445 0.466280
v -0.011188 0.479375 0.466280
v -0.010323 0.492748 0.466280
v -0.022933 0.492316 0.463921
v -0.022446 0.498290 0.462701
v -0.025311 0.498678 0.456805
v -0.002339 -0.489718 0.463920
v -0.002893 -0.495696 0.462700
v -0.000042 -0.496084 0.456803
v -0.016076 -0.497168 0.463852
v -0.022446 -0.495699 0.462700
v -0.025311 -0.496087 0.456804
v -0.009275 0.499759 0.463853
v -0.002893 0.498287 0.462700
v -0.000042 0.498675 0.456804
v -0.000042 0.498675 0.456804
v -0.002893 0.498287 0.462700
v -0.002339 0.492309 0.463920
v -0.025311 -0.496087 0.456804
v -0.022446 -0.495699 0.462700
v -0.022933 -0.489725 0.463921
v -0.025311 0.498678 0.456805
v -0.022446 0.498290 0.462701
v -0.016077 0.499759 0.463853
v -0.000042 -0.496084 0.456803
v -0.002893 -0.495696 0.462700
v -0.009275 -0.497168 0.463852
v -0.016076 -0.497168 0.463852
v -0.016077 0.499759 0.463853
v -0.009275 -0.497168 0.463852
v -0.009275 0.499759 0.463853
v -0.021941 0.479156 0.463922
v -0.045498 0.488428 0.381699
v -0.003189 0.479137 0.463921
v -0.003068 0.455686 0.463921
v 0.036217 0.468042 0.321320
v 0.020139 0.488427 0.381705
v -0.003019 0.429791 0.463918
v -0.002932 0.391070 0.461767
v 0.065424 0.402155 0.210898
v 0.051301 0.438067 0.264228
v -0.002872 0.351128 0.464789
v -0.002804 0.300260 0.463916
v 0.089305 0.308889 0.120683
v 0.078034 0.357919 0.163257
v -0.002757 0.248655 0.462762
v -0.002712 0.189203 0.465788
v 0.106179 0.194733 0.056935
v 0.098542 0.253465 0.085780
v -0.002684 0.129336 0.463915
v -0.002663 0.065394 0.462774
v 0.114920 0.067406 0.023911
v 0.111435 0.131827 0.037077
v -0.002659 0.001296 0.465791
v -0.002664 -0.062767 0.463915
v 0.114932 -0.064421 0.023865
v 0.115833 0.001295 0.020463
v -0.002684 -0.126745 0.462285
v -0.002712 -0.186577 0.463915
v 0.106223 -0.191790 0.056768
v 0.111435 -0.129237 0.037077
v -0.002757 -0.246063 0.465305
v -0.002807 -0.297620 0.463915
v 0.089342 -0.305871 0.120545
v 0.098544 -0.250872 0.085779
v -0.002872 -0.348536 0.462789
v -0.002931 -0.388562 0.465129
v 0.065603 -0.400135 0.210234
v 0.078031 -0.355343 0.163269
v -0.003019 -0.427200 0.463918
v -0.003068 -0.453066 0.463921
v 0.036197 -0.465326 0.321397
v 0.051306 -0.435468 0.264212
v -0.003189 -0.476546 0.463920
v 0.020140 -0.485837 0.381708
v -0.021941 -0.476565 0.463921
v -0.021823 -0.453066 0.463922
v -0.061559 -0.465326 0.321392
v -0.045496 -0.485837 0.381701
v -0.021755 -0.427200 0.463920
v -0.021658 -0.388562 0.465131
v -0.090970 -0.400135 0.210230
v -0.076672 -0.435468 0.264208
v -0.021594 -0.348536 0.462791
v -0.021525 -0.297620 0.463917
v -0.114713 -0.305871 0.120542
v -0.103400 -0.355343 0.163267
v -0.021473 -0.246063 0.465307
v -0.021427 -0.186577 0.463917
v -0.131595 -0.191790 0.056766
v -0.123914 -0.250872 0.085777
v -0.021397 -0.126745 0.462286
v -0.021377 -0.062767 0.463917
v -0.140305 -0.064421 0.023863
v -0.136807 -0.129237 0.037075
v -0.021372 0.001296 0.465793
v -0.021377 0.065394 0.462776
v -0.140293 0.067406 0.023909
v -0.141205 0.001295 0.020461
v -0.021397 0.129336 0.463917
v -0.021426 0.189203 0.465789
v -0.131551 0.194733 0.056933
v -0.136808 0.131827 0.037075
v -0.021473 0.248654 0.462764
v -0.021523 0.300260 0.463917
v -0.114676 0.308889 0.120680
v -0.123915 0.253465 0.085778
v -0.021594 0.351128 0.464790
v -0.021660 0.391070 0.461769
v -0.090795 0.402155 0.210895
v -0.103405 0.357919 0.163254
v -0.021755 0.429791 0.463920
v -0.021823 0.455686 0.463922
v -0.061581 0.468042 0.321315
v -0.076670 0.438067 0.264225
v -0.061581 0.468042 0.321315
v -0.045498 0.488428 0.381699
v -0.090795 0.402155 0.210895
v -0.076670 0.438067 0.264225
v -0.114676 0.308889 0.120680
v -0.103405 0.357919 0.163254
v -0.131551 0.194733 0.056933
v -0.123915 0.253465 0.085778
v -0.140293 0.067406 0.023909
v -0.136808 0.131827 0.037075
v -0.140305 -0.064421 0.023863
v -0.141205 0.001295 0.020461
v -0.131595 -0.191790 0.056766
v -0.136807 -0.129237 0.037075
v -0.114713 -0.305871 0.120542
v -0.123914 -0.250872 0.085777
v -0.090970 -0.400135 0.210230
v -0.103400 -0.355343 0.163267
v -0.061559 -0.465326 0.321392
v -0.076672 -0.435468 0.264208
v -0.012690 -0.497217 0.463853
v -0.045496 -0.485837 0.381701
v 0.036197 -0.465326 0.321397
v 0.020140 -0.485837 0.381708
v 0.065603 -0.400135 0.210234
v 0.051306 -0.435468 0.264212
v 0.089342 -0.305871 0.120545
v 0.078031 -0.355343 0.163269
v 0.106223 -0.191790 0.056768
v 0.098544 -0.250872 0.085779
v 0.114932 -0.064421 0.023865
v 0.111435 -0.129237 0.037077
v 0.114920 0.067406 0.023911
v 0.115833 0.001295 0.020463
v 0.106179 0.194733 0.056935
v 0.111435 0.131827 0.037077
v 0.089305 0.308889 0.120683
v 0.098542 0.253465 0.085780
v 0.065424 0.402155 0.210898
v 0.078034 0.357919 0.163257
v 0.036217 0.468042 0.321320
v 0.051301 0.438067 0.264228
v -0.012690 0.499808 0.463853
v 0.020139 0.488427 0.381705
v -0.012690 -0.497217 0.463853
v -0.012690 0.499808 0.463853
vn -0.9134 -0.0386 0.4052
vn -0.9231 0.0854 0.3750
vn -0.9639 0.1346 0.2296
vn 0.9144 0.0297 0.4037
vn 0.9228 -0.0946 0.3735
vn 0.9634 -0.1425 0.2271
vn 0.9144 -0.0298 0.4037
vn 0.9633 0.1425 0.2273
vn 0.9228 0.0946 0.3735
vn -0.9134 0.0386 0.4052
vn -0.9640 -0.1346 0.2294
vn -0.9231 -0.0853 0.3750
vn 0.9161 -0.0025 0.4008
vn 0.9696 0.1443 0.1976
vn 0.9198 0.0015 0.3923
vn 0.9785 0.1345 0.1560
vn 0.9747 0.1367 0.1767
vn 0.9162 -0.0114 0.4007
vn 0.9185 -0.0065 0.3955
vn 0.9871 0.1018 0.1235
vn 0.9831 0.1178 0.1399
vn 0.9165 0.0098 0.3999
vn 0.9175 0.0036 0.3977
vn 0.9928 0.0652 0.1004
vn 0.9899 0.0857 0.1126
vn 0.9199 0.0046 0.3922
vn 0.9200 0.0047 0.3919
vn 0.9958 0.0233 0.0888
vn 0.9945 0.0424 0.0954
vn 0.9191 -0.0080 0.3939
vn 0.9177 0.0031 0.3972
vn 0.9190 -0.0090 0.3942
vn 0.9958 -0.0239 0.0888
vn 0.9960 0.0005 0.0893
vn 0.9197 -0.0001 0.3927
vn 0.9188 0.0083 0.3947
vn 0.9929 -0.0637 0.1007
vn 0.9945 -0.0435 0.0955
vn 0.9179 -0.0013 0.3967
vn 0.9185 -0.0081 0.3953
vn 0.9869 -0.1044 0.1234
vn 0.9902 -0.0836 0.1123
vn 0.9196 0.0063 0.3928
vn 0.9165 0.0041 0.4001
vn 0.9793 -0.1306 0.1549
vn 0.9834 -0.1162 0.1396
vn 0.9176 -0.0031 0.3974
vn 0.9161 0.0025 0.4008
vn 0.9696 -0.1440 0.1977
vn 0.9739 -0.1418 0.1774
vn -0.9152 0.0087 0.4029
vn -0.9699 -0.1387 0.2004
vn -0.9154 0.0080 0.4024
vn -0.9793 -0.1274 0.1576
vn -0.9740 -0.1375 0.1800
vn -0.9167 0.0010 0.3996
vn -0.9175 -0.0060 0.3977
vn -0.9867 -0.1025 0.1261
vn -0.9833 -0.1138 0.1423
vn -0.9186 0.0085 0.3952
vn -0.9177 0.0094 0.3971
vn -0.9927 -0.0626 0.1033
vn -0.9900 -0.0821 0.1150
vn -0.9169 0.0003 0.3991
vn -0.9179 -0.0088 0.3966
vn -0.9955 -0.0237 0.0915
vn -0.9942 -0.0428 0.0982
vn -0.9186 0.0006 0.3951
vn -0.9166 0.0035 0.3998
vn -0.9190 0.0043 0.3943
vn -0.9955 0.0231 0.0915
vn -0.9958 0.0006 0.0920
vn -0.9181 -0.0087 0.3962
vn -0.9165 0.0026 0.4001
vn -0.9926 0.0642 0.1031
vn -0.9943 0.0416 0.0981
vn -0.9189 0.0031 0.3946
vn -0.9174 -0.0085 0.3978
vn -0.9870 0.0998 0.1262
vn -0.9898 0.0841 0.1153
vn -0.9155 0.0072 0.4022
vn -0.9188 -0.0019 0.3947
vn -0.9785 0.1313 0.1588
vn -0.9831 0.1151 0.1427
vn -0.9151 -0.0155 0.4028
vn -0.9152 -0.0087 0.4029
vn -0.9698 0.1388 0.2004
vn -0.9748 0.1319 0.1796
vn -0.0000 0.9216 -0.3881
vn -0.2087 0.9177 -0.3381
vn -0.1869 0.9662 -0.1774
vn -0.0000 0.9734 -0.2290
vn -0.0000 0.7904 -0.6126
vn -0.2393 0.7904 -0.5640
vn -0.2242 0.8617 -0.4553
vn -0.0000 0.8642 -0.5032
vn 0.0001 0.6060 -0.7955
vn -0.2647 0.6067 -0.7495
vn -0.2527 0.7051 -0.6625
vn -0.0000 0.7051 -0.7092
vn -0.0000 0.3807 -0.9247
vn -0.2827 0.3817 -0.8800
vn -0.2746 0.4992 -0.8219
vn -0.0000 0.4983 -0.8670
vn -0.0000 0.1300 -0.9915
vn -0.2920 0.1304 -0.9475
vn -0.2883 0.2587 -0.9219
vn -0.0000 0.2579 -0.9662
vn -0.0000 -0.1295 -0.9916
vn -0.2920 -0.1299 -0.9476
vn -0.2930 0.0002 -0.9561
vn -0.0000 0.0002 -1.0000
vn -0.0000 -0.3803 -0.9249
vn -0.2828 -0.3813 -0.8801
vn -0.2883 -0.2580 -0.9221
vn -0.0000 -0.2573 -0.9663
vn -0.0001 -0.6057 -0.7957
vn -0.2648 -0.6063 -0.7498
vn -0.2745 -0.4999 -0.8214
vn -0.0000 -0.4990 -0.8666
vn -0.0000 -0.7897 -0.6134
vn -0.2391 -0.7902 -0.5643
vn -0.2534 -0.6994 -0.6683
vn -0.0000 -0.6996 -0.7145
vn -0.0000 -0.9217 -0.3879
vn -0.2084 -0.9177 -0.3381
vn -0.2237 -0.8652 -0.4487
vn -0.0000 -0.8682 -0.4963
vn -0.0000 -0.9732 -0.2301
vn 0.0001 -0.9994 0.0353
vn -0.1606 -0.9851 0.0619
vn -0.1865 -0.9661 -0.1786
vn 0.2084 -0.9177 -0.3381
vn 0.1867 -0.9661 -0.1786
vn 0.2393 -0.7902 -0.5642
vn 0.2230 -0.8654 -0.4488
vn 0.2646 -0.6063 -0.7499
vn 0.2533 -0.6995 -0.6682
vn 0.2826 -0.3813 -0.8802
vn 0.2744 -0.4999 -0.8215
vn 0.2919 -0.1300 -0.9476
vn 0.2883 -0.2580 -0.9221
vn 0.2919 0.1304 -0.9475
vn 0.2929 0.0002 -0.9561
vn 0.2826 0.3817 -0.8800
vn 0.2882 0.2587 -0.9220
vn 0.2647 0.6067 -0.7496
vn 0.2744 0.4992 -0.8219
vn 0.2391 0.7904 -0.5641
vn 0.2525 0.7051 -0.6626
vn 0.2082 0.9178 -0.3382
vn 0.2240 0.8617 -0.4553
vn -0.0001 0.9994 0.0353
vn 0.1603 0.9852 0.0616
vn 0.1861 0.9663 -0.1776
vn -0.1605 0.9851 0.0619
vn 0.1602 -0.9852 0.0616
vn -0.1395 0.0056 0.9902
vn -0.1348 -0.1435 0.9804
vn -0.0000 -0.1671 0.9859
vn -0.0000 -0.0000 1.0000
vn -0.1426 0.0006 0.9898
vn -0.0000 -0.0157 0.9999
vn -0.1431 -0.0153 0.9896
vn -0.0000 0.0135 0.9999
vn -0.1426 0.0138 0.9897
vn -0.0000 0.0182 0.9998
vn -0.1438 0.0182 0.9894
vn -0.0000 -0.0245 0.9997
vn -0.1432 -0.0241 0.9894
vn -0.0000 -0.0018 1.0000
vn -0.1430 -0.0016 0.9897
vn -0.0000 0.0253 0.9997
vn -0.1433 0.0251 0.9894
vn -0.0000 0.0009 1.0000
vn -0.1437 0.0009 0.9896
vn -0.0000 -0.0274 0.9996
vn -0.1434 -0.0271 0.9893
vn -0.0000 0.0089 1.0000
vn -0.1429 0.0088 0.9897
vn -0.0000 0.0146 0.9999
vn -0.1438 0.0145 0.9895
vn -0.0000 -0.0246 0.9997
vn -0.1435 -0.0244 0.9894
vn -0.0000 0.0098 1.0000
vn -0.1428 0.0095 0.9897
vn -0.0000 0.0142 0.9999
vn -0.1438 0.0141 0.9895
vn -0.0000 -0.0198 0.9998
vn -0.1433 -0.0197 0.9895
vn -0.0000 0.0292 0.9996
vn -0.1425 0.0285 0.9894
vn -0.0000 0.0101 0.9999
vn -0.1439 0.0100 0.9895
vn -0.0000 -0.0277 0.9996
vn -0.1428 -0.0279 0.9894
vn -0.1426 -0.0005 0.9898
vn -0.1395 -0.0056 0.9902
vn -0.0000 0.1671 0.9859
vn -0.1349 0.1435 0.9804
vn 0.1350 -0.1447 0.9802
vn 0.1397 0.0041 0.9902
vn 0.1430 -0.0005 0.9897
vn 0.1433 -0.0159 0.9896
vn 0.1429 0.0133 0.9896
vn 0.1441 0.0177 0.9894
vn 0.1434 -0.0245 0.9894
vn 0.1432 -0.0019 0.9897
vn 0.1436 0.0249 0.9893
vn 0.1440 0.0008 0.9896
vn 0.1436 -0.0271 0.9893
vn 0.1431 0.0088 0.9897
vn 0.1440 0.0145 0.9895
vn 0.1437 -0.0243 0.9893
vn 0.1430 0.0097 0.9897
vn 0.1440 0.0143 0.9895
vn 0.1436 -0.0194 0.9895
vn 0.1427 0.0289 0.9893
vn 0.1442 0.0106 0.9895
vn 0.1430 -0.0272 0.9893
vn 0.1431 0.0005 0.9897
vn 0.1397 -0.0042 0.9902
vn 0.1351 0.1446 0.9802
vn -0.6115 0.1002 0.7849
vn -0.6010 0.2441 0.7610
vn -0.9053 0.2314 0.3561
vn 0.6119 -0.1064 0.7838
vn 0.5992 -0.2504 0.7605
vn 0.9037 -0.2402 0.3544
vn -0.1240 -0.9685 0.2159
vn -0.2875 -0.9287 0.2342
vn -0.3150 -0.9466 0.0686
vn 0.1241 0.9686 0.2155
vn 0.2870 0.9291 0.2332
vn 0.3143 0.9469 0.0681
vn 0.9037 0.2403 0.3544
vn 0.5992 0.2503 0.7605
vn 0.6119 0.1063 0.7838
vn -0.9053 -0.2314 0.3562
vn -0.6010 -0.2441 0.7610
vn -0.6115 -0.1002 0.7848
vn -0.3150 0.9466 0.0686
vn -0.2873 0.9287 0.2343
vn -0.1239 0.9685 0.2159
vn 0.3144 -0.9469 0.0682
vn 0.2871 -0.9291 0.2331
vn 0.1241 -0.9686 0.2155
vn -0.1398 -0.2887 0.9472
vn -0.1398 0.2887 0.9472
vn 0.1390 -0.2904 0.9468
vn 0.1390 0.2904 0.9468
vn -0.5992 -0.0239 0.8003
vn -0.9444 0.2678 0.1908
vn 0.6000 -0.0178 0.7998
vn 0.6061 0.0020 0.7954
vn 0.9509 0.2791 0.1336
vn 0.9426 0.2758 0.1883
vn 0.6043 -0.0210 0.7965
vn 0.6149 0.0093 0.7885
vn 0.9662 0.2514 0.0571
vn 0.9582 0.2709 0.0923
vn 0.6028 0.0240 0.7975
vn 0.6084 -0.0150 0.7935
vn 0.9808 0.1951 -0.0030
vn 0.9738 0.2261 0.0245
vn 0.6127 0.0118 0.7902
vn 0.6043 0.0081 0.7967
vn 0.9913 0.1235 -0.0455
vn 0.9865 0.1612 -0.0271
vn 0.6096 -0.0192 0.7924
vn 0.6125 0.0117 0.7904
vn 0.9968 0.0423 -0.0676
vn 0.9947 0.0839 -0.0597
vn 0.6048 0.0071 0.7963
vn 0.6090 -0.0218 0.7928
vn 0.9968 -0.0422 -0.0676
vn 0.9975 0.0001 -0.0709
vn 0.6118 0.0004 0.7910
vn 0.6087 0.0197 0.7932
vn 0.9913 -0.1234 -0.0455
vn 0.9947 -0.0836 -0.0597
vn 0.6059 -0.0019 0.7955
vn 0.6085 -0.0201 0.7933
vn 0.9808 -0.1951 -0.0031
vn 0.9865 -0.1614 -0.0269
vn 0.6128 0.0135 0.7901
vn 0.6031 0.0099 0.7976
vn 0.9663 -0.2510 0.0574
vn 0.9743 -0.2243 0.0227
vn 0.6083 -0.0135 0.7936
vn 0.6056 -0.0021 0.7958
vn 0.9509 -0.2791 0.1337
vn 0.9577 -0.2718 0.0944
vn 0.6000 0.0177 0.7998
vn 0.9427 -0.2756 0.1881
vn -0.5990 0.0240 0.8004
vn -0.6044 0.0026 0.7967
vn -0.9522 -0.2734 0.1366
vn -0.9445 -0.2678 0.1904
vn -0.6074 -0.0109 0.7943
vn -0.6019 0.0121 0.7985
vn -0.9669 -0.2479 0.0602
vn -0.9586 -0.2679 0.0971
vn -0.6117 0.0153 0.7910
vn -0.6074 -0.0188 0.7942
vn -0.9812 -0.1932 -0.0004
vn -0.9747 -0.2220 0.0253
vn -0.6048 -0.0009 0.7964
vn -0.6075 0.0205 0.7941
vn -0.9916 -0.1223 -0.0429
vn -0.9868 -0.1600 -0.0243
vn -0.6107 0.0009 0.7919
vn -0.6079 -0.0216 0.7937
vn -0.9970 -0.0418 -0.0649
vn -0.9949 -0.0830 -0.0572
vn -0.6037 0.0071 0.7972
vn -0.6114 0.0115 0.7913
vn -0.9970 0.0420 -0.0649
vn -0.9977 0.0001 -0.0682
vn -0.6085 -0.0197 0.7933
vn -0.6032 0.0074 0.7976
vn -0.9915 0.1225 -0.0428
vn -0.9949 0.0832 -0.0570
vn -0.6115 0.0108 0.7912
vn -0.6072 -0.0164 0.7944
vn -0.9811 0.1933 -0.0003
vn -0.9869 0.1596 -0.0241
vn -0.6014 0.0223 0.7986
vn -0.6137 0.0069 0.7895
vn -0.9669 0.2478 0.0601
vn -0.9743 0.2236 0.0272
vn -0.6031 -0.0239 0.7973
vn -0.6049 -0.0025 0.7963
vn -0.9522 0.2732 0.1366
vn -0.9591 0.2665 0.0953
vn -0.3632 0.8857 -0.2892
vn -0.3426 0.9298 -0.1341
vn -0.3939 0.7653 -0.5091
vn -0.3781 0.8339 -0.4020
vn -0.4194 0.5908 -0.6892
vn -0.4067 0.6847 -0.6048
vn -0.4376 0.3727 -0.8183
vn -0.4290 0.4859 -0.7614
vn -0.4470 0.1275 -0.8854
vn -0.4430 0.2522 -0.8603
vn -0.4470 -0.1270 -0.8855
vn -0.4477 0.0002 -0.8942
vn -0.4375 -0.3722 -0.8185
vn -0.4432 -0.2516 -0.8604
vn -0.4192 -0.5906 -0.6895
vn -0.4288 -0.4867 -0.7611
vn -0.3943 -0.7646 -0.5098
vn -0.4071 -0.6795 -0.6103
vn -0.3629 -0.8859 -0.2891
vn -0.3768 -0.8377 -0.3954
vn 0.0002 -0.9797 0.2003
vn -0.3428 -0.9296 -0.1352
vn 0.3626 -0.8859 -0.2892
vn 0.3422 -0.9298 -0.1354
vn 0.3941 -0.7647 -0.5099
vn 0.3766 -0.8377 -0.3956
vn 0.4191 -0.5906 -0.6896
vn 0.4068 -0.6796 -0.6104
vn 0.4374 -0.3722 -0.8186
vn 0.4288 -0.4866 -0.7611
vn 0.4468 -0.1270 -0.8856
vn 0.4429 -0.2516 -0.8606
vn 0.4468 0.1275 -0.8855
vn 0.4479 0.0002 -0.8941
vn 0.4373 0.3727 -0.8185
vn 0.4427 0.2523 -0.8604
vn 0.4190 0.5909 -0.6894
vn 0.4286 0.4860 -0.7616
vn 0.3934 0.7654 -0.5093
vn 0.4062 0.6848 -0.6050
vn 0.3625 0.8859 -0.2894
vn 0.3780 0.8339 -0.4021
vn -0.0002 0.9797 0.2004
vn 0.3420 0.9300 -0.1343
vn -0.0000 -0.3265 0.9452
vn -0.0000 0.3265 0.9452
vt 0.278448 0.397417
vt 0.278103 0.390707
vt 0.243931 0.392994
vt 0.304425 0.986353
vt 0.304747 0.993050
vt 0.338963 0.990787
vt 0.304475 0.397458
vt 0.338950 0.393036
vt 0.304797 0.390760
vt 0.278396 0.986389
vt 0.243815 0.990814
vt 0.278050 0.993099
vt 0.304420 0.412207
vt 0.380184 0.405038
vt 0.304385 0.452157
vt 0.453118 0.445154
vt 0.417445 0.423029
vt 0.304387 0.428351
vt 0.304386 0.508067
vt 0.512001 0.502468
vt 0.484090 0.472262
vt 0.304380 0.476810
vt 0.304390 0.576374
vt 0.553336 0.572769
vt 0.534598 0.536590
vt 0.304385 0.539841
vt 0.304389 0.652497
vt 0.574630 0.651203
vt 0.566143 0.611519
vt 0.304387 0.613199
vt 0.304383 0.691905
vt 0.304382 0.731287
vt 0.574652 0.732412
vt 0.576824 0.691927
vt 0.304373 0.770611
vt 0.304370 0.807411
vt 0.553422 0.810869
vt 0.566130 0.772332
vt 0.304359 0.843969
vt 0.304354 0.875708
vt 0.512044 0.881121
vt 0.534573 0.847257
vt 0.304343 0.907001
vt 0.304345 0.931712
vt 0.453629 0.939021
vt 0.483328 0.911557
vt 0.304342 0.955459
vt 0.304371 0.971583
vt 0.380037 0.978709
vt 0.415493 0.960709
vt 0.278504 0.971613
vt 0.202747 0.978716
vt 0.278584 0.931731
vt 0.129165 0.939004
vt 0.167295 0.960704
vt 0.278551 0.955483
vt 0.278623 0.875718
vt 0.070764 0.881089
vt 0.099473 0.911533
vt 0.278607 0.907015
vt 0.278649 0.807415
vt 0.029399 0.810827
vt 0.048241 0.847220
vt 0.278639 0.843976
vt 0.278665 0.731287
vt 0.008183 0.732365
vt 0.016697 0.772287
vt 0.278660 0.770613
vt 0.278671 0.691903
vt 0.278672 0.652493
vt 0.008219 0.651153
vt 0.006017 0.691877
vt 0.278673 0.613192
vt 0.278669 0.576365
vt 0.029526 0.572720
vt 0.016712 0.611470
vt 0.278665 0.539829
vt 0.278655 0.508053
vt 0.070871 0.502424
vt 0.048269 0.536543
vt 0.278644 0.476791
vt 0.278625 0.452134
vt 0.129761 0.445115
vt 0.098786 0.472221
vt 0.278597 0.428323
vt 0.278552 0.412172
vt 0.202698 0.405000
vt 0.165436 0.422991
vt 0.802780 0.550013
vt 0.659051 0.550013
vt 0.674317 0.580436
vt 0.802780 0.580436
vt 0.802780 0.497751
vt 0.646860 0.497751
vt 0.651416 0.523960
vt 0.802780 0.523960
vt 0.802780 0.445188
vt 0.641942 0.445188
vt 0.643946 0.471497
vt 0.802780 0.471497
vt 0.802780 0.390789
vt 0.639624 0.392454
vt 0.640584 0.418843
vt 0.802780 0.417178
vt 0.802780 0.339608
vt 0.638655 0.339608
vt 0.639024 0.366045
vt 0.802780 0.366045
vt 0.802780 0.286714
vt 0.638654 0.286714
vt 0.638559 0.313167
vt 0.802780 0.313167
vt 0.802780 0.233835
vt 0.639619 0.233835
vt 0.639024 0.260273
vt 0.802780 0.260273
vt 0.802780 0.181045
vt 0.641936 0.181045
vt 0.640585 0.207425
vt 0.802780 0.207425
vt 0.802780 0.128340
vt 0.646816 0.128340
vt 0.643944 0.154707
vt 0.802780 0.154707
vt 0.802780 0.075788
vt 0.659064 0.075788
vt 0.651417 0.102057
vt 0.802780 0.102057
vt 0.802780 0.049637
vt 0.802780 0.021221
vt 0.765833 0.021419
vt 0.674317 0.049637
vt 0.946496 0.075788
vt 0.931243 0.049637
vt 0.958744 0.128340
vt 0.954143 0.102057
vt 0.963624 0.181045
vt 0.961616 0.154707
vt 0.965941 0.233835
vt 0.964975 0.207425
vt 0.966906 0.286714
vt 0.966536 0.260273
vt 0.966905 0.339608
vt 0.967001 0.313167
vt 0.965936 0.390789
vt 0.966536 0.366045
vt 0.963618 0.445188
vt 0.964976 0.417178
vt 0.958700 0.497751
vt 0.961614 0.471497
vt 0.946509 0.550013
vt 0.954144 0.523960
vt 0.802780 0.611449
vt 0.903484 0.611616
vt 0.931243 0.580436
vt 0.765833 0.611234
vt 0.839728 0.021419
vt 0.290572 0.985591
vt 0.289902 0.993964
vt 0.291384 0.993992
vt 0.291384 0.985588
vt 0.290589 0.971037
vt 0.291412 0.971036
vt 0.291419 0.955192
vt 0.290599 0.955193
vt 0.291437 0.931429
vt 0.290619 0.931430
vt 0.291447 0.906856
vt 0.290631 0.906857
vt 0.291461 0.875558
vt 0.290644 0.875559
vt 0.291471 0.843888
vt 0.290655 0.843889
vt 0.291482 0.807331
vt 0.290665 0.807331
vt 0.291489 0.770573
vt 0.290673 0.770574
vt 0.291496 0.731263
vt 0.290679 0.731263
vt 0.291500 0.691904
vt 0.290683 0.691904
vt 0.291502 0.652524
vt 0.290686 0.652524
vt 0.291502 0.613234
vt 0.290686 0.613234
vt 0.291501 0.576457
vt 0.290685 0.576457
vt 0.291497 0.539920
vt 0.290681 0.539919
vt 0.291493 0.508222
vt 0.290676 0.508221
vt 0.291484 0.476952
vt 0.290667 0.476951
vt 0.291478 0.452427
vt 0.290659 0.452426
vt 0.291464 0.428618
vt 0.290645 0.428616
vt 0.291460 0.412756
vt 0.290637 0.412754
vt 0.291434 0.398217
vt 0.290622 0.398214
vt 0.291436 0.389814
vt 0.289954 0.389844
vt 0.292894 0.993956
vt 0.292257 0.985586
vt 0.292290 0.971033
vt 0.292294 0.955189
vt 0.292310 0.931428
vt 0.292320 0.906855
vt 0.292333 0.875557
vt 0.292343 0.843887
vt 0.292354 0.807330
vt 0.292360 0.770573
vt 0.292367 0.731263
vt 0.292371 0.691904
vt 0.292374 0.652524
vt 0.292374 0.613235
vt 0.292373 0.576458
vt 0.292369 0.539921
vt 0.292365 0.508223
vt 0.292357 0.476953
vt 0.292351 0.452429
vt 0.292339 0.428620
vt 0.292338 0.412759
vt 0.292307 0.398219
vt 0.292946 0.389852
vt 0.284075 0.389846
vt 0.283765 0.383825
vt 0.277827 0.384643
vt 0.298771 0.993912
vt 0.299060 0.999932
vt 0.304999 0.999116
vt 0.761068 0.017768
vt 0.625477 0.017768
vt 0.625477 0.021295
vt 0.844493 0.615218
vt 0.980083 0.615218
vt 0.980083 0.611369
vt 0.305051 0.384695
vt 0.299113 0.383878
vt 0.298823 0.389898
vt 0.277774 0.999162
vt 0.283711 0.999982
vt 0.284022 0.993961
vt 0.625477 0.611369
vt 0.625477 0.615218
vt 0.761068 0.615218
vt 0.980083 0.021295
vt 0.980083 0.017768
vt 0.844493 0.017768
vt 0.289579 0.999996
vt 0.289633 0.383811
vt 0.293190 0.999984
vt 0.293243 0.383824
vt 0.284505 0.398194
vt 0.230113 0.391223
vt 0.298421 0.398234
vt 0.298391 0.412777
vt 0.391338 0.403983
vt 0.352769 0.391264
vt 0.298365 0.428635
vt 0.298368 0.452440
vt 0.461656 0.444752
vt 0.427695 0.422546
vt 0.298365 0.476962
vt 0.298374 0.508229
vt 0.519046 0.502278
vt 0.491982 0.472063
vt 0.298374 0.539926
vt 0.298380 0.576461
vt 0.559627 0.572678
vt 0.541288 0.536495
vt 0.298377 0.613237
vt 0.298380 0.652526
vt 0.580646 0.651174
vt 0.572276 0.611480
vt 0.298374 0.691904
vt 0.298373 0.731262
vt 0.580668 0.732437
vt 0.582842 0.691927
vt 0.298364 0.770572
vt 0.298360 0.807328
vt 0.559713 0.810956
vt 0.572263 0.772373
vt 0.298348 0.843883
vt 0.298342 0.875552
vt 0.519101 0.881304
vt 0.541263 0.847352
vt 0.298328 0.906847
vt 0.298327 0.931418
vt 0.462039 0.939433
vt 0.491946 0.911777
vt 0.298320 0.955174
vt 0.298342 0.971015
vt 0.391240 0.979764
vt 0.427650 0.961283
vt 0.298371 0.985576
vt 0.352720 0.992554
vt 0.284453 0.985614
vt 0.284535 0.971048
vt 0.191541 0.979767
vt 0.230058 0.992574
vt 0.284574 0.955200
vt 0.284602 0.931438
vt 0.120754 0.939413
vt 0.155137 0.961274
vt 0.284622 0.906863
vt 0.284635 0.875563
vt 0.063706 0.881271
vt 0.090854 0.911750
vt 0.284650 0.843892
vt 0.284658 0.807333
vt 0.023108 0.810913
vt 0.041551 0.847314
vt 0.284669 0.770575
vt 0.284673 0.731263
vt 0.002167 0.732389
vt 0.010565 0.772327
vt 0.284680 0.691903
vt 0.284680 0.652522
vt 0.002203 0.651124
vt 0.000000 0.691877
vt 0.284683 0.613232
vt 0.284678 0.576453
vt 0.023235 0.572628
vt 0.010579 0.611429
vt 0.284676 0.539915
vt 0.284667 0.508216
vt 0.063826 0.502233
vt 0.041579 0.536448
vt 0.284659 0.476944
vt 0.284643 0.452418
vt 0.121223 0.444713
vt 0.090894 0.472020
vt 0.284619 0.428607
vt 0.284582 0.412743
vt 0.191543 0.403946
vt 0.155185 0.422508
vt 0.625477 0.550013
vt 0.625477 0.580436
vt 0.625477 0.497751
vt 0.625477 0.523960
vt 0.625477 0.445188
vt 0.625477 0.471497
vt 0.625477 0.392454
vt 0.625477 0.418843
vt 0.625477 0.339608
vt 0.625477 0.366045
vt 0.625477 0.286714
vt 0.625477 0.313167
vt 0.625477 0.233835
vt 0.625477 0.260273
vt 0.625477 0.181045
vt 0.625477 0.207425
vt 0.625477 0.128340
vt 0.625477 0.154707
vt 0.625477 0.075788
vt 0.625477 0.102057
vt 0.802780 0.017768
vt 0.625477 0.049637
vt 0.980083 0.075788
vt 0.980083 0.049637
vt 0.980083 0.128340
vt 0.980083 0.102057
vt 0.980083 0.181045
vt 0.980083 0.154707
vt 0.980083 0.233835
vt 0.980083 0.207425
vt 0.980083 0.286714
vt 0.980083 0.260273
vt 0.980083 0.339608
vt 0.980083 0.313167
vt 0.980083 0.392454
vt 0.980083 0.366045
vt 0.980083 0.445188
vt 0.980083 0.418843
vt 0.980083 0.497751
vt 0.980083 0.471497
vt 0.980083 0.550013
vt 0.980083 0.523960
vt 0.802780 0.615218
vt 0.980083 0.580436
vt 0.291385 1.000000
vt 0.291438 0.383807
s 1
f 1/1/1 2/2/2 3/3/3
f 4/4/4 5/5/5 6/6/6
f 7/7/7 8/8/8 9/9/9
f 10/10/10 11/11/11 12/12/12
f 13/13/13 14/14/14 8/8/8
f 13/13/13 8/8/8 7/7/7
f 15/15/15 16/16/16 17/17/17
f 15/15/15 17/17/17 18/18/18
f 19/19/19 20/20/20 21/21/21
f 19/19/19 21/21/21 22/22/22
f 23/23/23 24/24/24 25/25/25
f 23/23/23 25/25/25 26/26/26
f 27/27/27 28/28/28 29/29/29
f 27/27/27 29/29/29 30/30/30
f 31/31/31 32/32/32 33/33/33
f 31/31/31 33/33/33 34/34/34
f 35/35/35 36/36/36 37/37/37
f 35/35/35 37/37/37 38/38/38
f 39/39/39 40/40/40 41/41/41
f 39/39/39 41/41/41 42/42/42
f 43/43/43 44/44/44 45/45/45
f 43/43/43 45/45/45 46/46/46
f 47/47/47 48/48/48 49/49/49
f 47/47/47 49/49/49 50/50/50
f 51/51/51 52/52/52 11/11/11
f 51/51/51 11/11/11 10/10/10
f 53/53/53 54/54/54 55/55/55
f 53/53/53 55/55/55 56/56/56
f 57/57/57 58/58/58 59/59/59
f 57/57/57 59/59/59 60/60/60
f 61/61/61 62/62/62 63/63/63
f 61/61/61 63/63/63 64/64/64
f 65/65/65 66/66/66 67/67/67
f 65/65/65 67/67/67 68/68/68
f 69/69/69 70/70/70 71/71/71
f 69/69/69 71/71/71 72/72/72
f 73/73/73 74/74/74 75/75/75
f 73/73/73 75/75/75 76/76/76
f 77/77/77 78/78/78 79/79/79
f 77/77/77 79/79/79 80/80/80
f 81/81/81 82/82/82 83/83/83
f 81/81/81 83/83/83 84/84/84
f 85/85/85 86/86/86 87/87/87
f 85/85/85 87/87/87 88/88/88
f 89/89/89 90/90/90 91/91/91
f 89/89/89 91/91/91 92/92/92
f 93/93/93 94/94/94 95/95/95
f 93/93/93 95/95/95 96/96/96
f 97/97/97 98/98/98 99/99/99
f 97/97/97 99/99/99 100/100/100
f 101/101/101 102/102/102 103/103/103
f 101/101/101 103/103/103 104/104/104
f 105/105/105 106/106/106 107/107/107
f 105/105/105 107/107/107 108/108/108
f 109/109/109 110/110/110 111/111/111
f 109/109/109 111/111/111 112/112/112
f 113/113/113 114/114/114 115/115/115
f 113/113/113 115/115/115 116/116/116
f 117/117/117 118/118/118 119/119/119
f 117/117/117 119/119/119 120/120/120
f 121/121/121 122/122/122 123/123/123
f 121/121/121 123/123/123 124/124/124
f 125/125/125 126/126/126 127/127/127
f 125/125/125 127/127/127 128/128/128
f 129/129/129 130/130/130 131/131/131
f 129/129/129 131/131/131 132/132/132
f 125/125/125 133/133/133 134/134/134
f 125/125/125 134/134/134 129/129/129
f 121/121/121 135/135/135 136/136/136
f 121/121/121 136/136/136 128/128/128
f 117/117/117 137/137/137 138/138/138
f 117/117/117 138/138/138 124/124/124
f 113/113/113 139/139/139 140/140/140
f 113/113/113 140/140/140 120/120/120
f 109/109/109 141/141/141 142/142/142
f 109/109/109 142/142/142 116/116/116
f 105/105/105 143/143/143 144/144/144
f 105/105/105 144/144/144 112/112/112
f 101/101/101 145/145/145 146/146/146
f 101/101/101 146/146/146 108/108/108
f 97/97/97 147/147/147 148/148/148
f 97/97/97 148/148/148 104/104/104
f 93/93/93 149/149/149 150/150/150
f 93/93/93 150/150/150 100/100/100
f 89/89/89 151/151/151 152/152/152
f 89/89/89 152/152/152 96/96/96
f 92/92/92 153/153/153 154/154/154
f 92/92/92 154/154/154 155/155/155
f 44/44/44 47/47/47 50/50/50
f 44/44/44 50/50/50 45/45/45
f 60/60/60 59/59/59 54/54/54
f 60/60/60 54/54/54 53/53/53
f 128/128/128 127/127/127 122/122/122
f 128/128/128 122/122/122 121/121/121
f 124/124/124 138/138/138 135/135/135
f 124/124/124 135/135/135 121/121/121
f 40/40/40 43/43/43 46/46/46
f 40/40/40 46/46/46 41/41/41
f 64/64/64 63/63/63 58/58/58
f 64/64/64 58/58/58 57/57/57
f 124/124/124 123/123/123 118/118/118
f 124/124/124 118/118/118 117/117/117
f 120/120/120 140/140/140 137/137/137
f 120/120/120 137/137/137 117/117/117
f 36/36/36 39/39/39 42/42/42
f 36/36/36 42/42/42 37/37/37
f 68/68/68 67/67/67 62/62/62
f 68/68/68 62/62/62 61/61/61
f 120/120/120 119/119/119 114/114/114
f 120/120/120 114/114/114 113/113/113
f 116/116/116 142/142/142 139/139/139
f 116/116/116 139/139/139 113/113/113
f 32/32/32 35/35/35 38/38/38
f 32/32/32 38/38/38 33/33/33
f 69/69/69 72/72/72 66/66/66
f 69/69/69 66/66/66 65/65/65
f 116/116/116 115/115/115 110/110/110
f 116/116/116 110/110/110 109/109/109
f 112/112/112 144/144/144 141/141/141
f 112/112/112 141/141/141 109/109/109
f 31/31/31 34/34/34 28/28/28
f 31/31/31 28/28/28 27/27/27
f 70/70/70 73/73/73 76/76/76
f 70/70/70 76/76/76 71/71/71
f 112/112/112 111/111/111 106/106/106
f 112/112/112 106/106/106 105/105/105
f 108/108/108 146/146/146 143/143/143
f 108/108/108 143/143/143 105/105/105
f 30/30/30 29/29/29 24/24/24
f 30/30/30 24/24/24 23/23/23
f 74/74/74 77/77/77 80/80/80
f 74/74/74 80/80/80 75/75/75
f 108/108/108 107/107/107 102/102/102
f 108/108/108 102/102/102 101/101/101
f 104/104/104 148/148/148 145/145/145
f 104/104/104 145/145/145 101/101/101
f 26/26/26 25/25/25 20/20/20
f 26/26/26 20/20/20 19/19/19
f 78/78/78 81/81/81 84/84/84
f 78/78/78 84/84/84 79/79/79
f 104/104/104 103/103/103 98/98/98
f 104/104/104 98/98/98 97/97/97
f 100/100/100 150/150/150 147/147/147
f 100/100/100 147/147/147 97/97/97
f 22/22/22 21/21/21 16/16/16
f 22/22/22 16/16/16 15/15/15
f 82/82/82 85/85/85 88/88/88
f 82/82/82 88/88/88 83/83/83
f 100/100/100 99/99/99 94/94/94
f 100/100/100 94/94/94 93/93/93
f 96/96/96 152/152/152 149/149/149
f 96/96/96 149/149/149 93/93/93
f 18/18/18 17/17/17 14/14/14
f 18/18/18 14/14/14 13/13/13
f 86/86/86 1/1/1 3/3/3
f 86/86/86 3/3/3 87/87/87
f 96/96/96 95/95/95 90/90/90
f 96/96/96 90/90/90 89/89/89
f 92/92/92 155/155/155 151/151/151
f 92/92/92 151/151/151 89/89/89
f 48/48/48 4/4/4 6/6/6
f 48/48/48 6/6/6 49/49/49
f 56/56/56 55/55/55 52/52/52
f 56/56/56 52/52/52 51/51/51
f 129/129/129 132/132/132 126/126/126
f 129/129/129 126/126/126 125/125/125
f 128/128/128 136/136/136 133/133/133
f 128/128/128 133/133/133 125/125/125
f 92/92/92 91/91/91 156/156/156
f 92/92/92 156/156/156 153/153/153
f 129/129/129 134/134/134 157/157/157
f 129/129/129 157/157/157 130/130/130
f 158/158/158 159/159/159 160/160/160
f 158/158/158 160/160/160 161/161/161
f 162/162/162 158/158/158 161/161/161
f 162/162/162 161/161/161 163/163/161
f 162/162/162 163/163/161 164/164/163
f 162/162/162 164/164/163 165/165/164
f 165/165/164 164/164/163 166/166/165
f 165/165/164 166/166/165 167/167/166
f 167/167/166 166/166/165 168/168/167
f 167/167/166 168/168/167 169/169/168
f 169/169/168 168/168/167 170/170/169
f 169/169/168 170/170/169 171/171/170
f 171/171/170 170/170/169 172/172/171
f 171/171/170 172/172/171 173/173/172
f 173/173/172 172/172/171 174/174/173
f 173/173/172 174/174/173 175/175/174
f 175/175/174 174/174/173 176/176/175
f 175/175/174 176/176/175 177/177/176
f 177/177/176 176/176/175 178/178/177
f 177/177/176 178/178/177 179/179/178
f 179/179/178 178/178/177 180/180/179
f 179/179/178 180/180/179 181/181/180
f 181/181/180 180/180/179 182/182/181
f 181/181/180 182/182/181 183/183/182
f 183/183/182 182/182/181 184/184/183
f 183/183/182 184/184/183 185/185/184
f 185/185/184 184/184/183 186/186/185
f 185/185/184 186/186/185 187/187/186
f 187/187/186 186/186/185 188/188/187
f 187/187/186 188/188/187 189/189/188
f 189/189/188 188/188/187 190/190/189
f 189/189/188 190/190/189 191/191/190
f 191/191/190 190/190/189 192/192/191
f 191/191/190 192/192/191 193/193/192
f 193/193/192 192/192/191 194/194/193
f 193/193/192 194/194/193 195/195/194
f 195/195/194 194/194/193 196/196/195
f 195/195/194 196/196/195 197/197/196
f 197/197/196 196/196/195 198/198/161
f 197/197/196 198/198/161 199/199/197
f 199/199/197 198/198/161 200/200/161
f 199/199/197 200/200/161 201/201/198
f 201/201/198 200/200/161 202/202/199
f 201/201/198 202/202/199 203/203/200
f 160/160/160 204/204/201 205/205/202
f 160/160/160 205/205/202 161/161/161
f 161/161/161 205/205/202 206/206/203
f 161/161/161 206/206/203 163/163/161
f 206/206/203 207/207/204 164/164/163
f 206/206/203 164/164/163 163/163/161
f 207/207/204 208/208/205 166/166/165
f 207/207/204 166/166/165 164/164/163
f 208/208/205 209/209/206 168/168/167
f 208/208/205 168/168/167 166/166/165
f 209/209/206 210/210/207 170/170/169
f 209/209/206 170/170/169 168/168/167
f 210/210/207 211/211/208 172/172/171
f 210/210/207 172/172/171 170/170/169
f 211/211/208 212/212/209 174/174/173
f 211/211/208 174/174/173 172/172/171
f 212/212/209 213/213/210 176/176/175
f 212/212/209 176/176/175 174/174/173
f 213/213/210 214/214/211 178/178/177
f 213/213/210 178/178/177 176/176/175
f 214/214/211 215/215/212 180/180/179
f 214/214/211 180/180/179 178/178/177
f 215/215/212 216/216/213 182/182/181
f 215/215/212 182/182/181 180/180/179
f 216/216/213 217/217/214 184/184/183
f 216/216/213 184/184/183 182/182/181
f 217/217/214 218/218/215 186/186/185
f 217/217/214 186/186/185 184/184/183
f 218/218/215 219/219/216 188/188/187
f 218/218/215 188/188/187 186/186/185
f 219/219/216 220/220/217 190/190/189
f 219/219/216 190/190/189 188/188/187
f 220/220/217 221/221/218 192/192/191
f 220/220/217 192/192/191 190/190/189
f 221/221/218 222/222/219 194/194/193
f 221/221/218 194/194/193 192/192/191
f 222/222/219 223/223/220 196/196/195
f 222/222/219 196/196/195 194/194/193
f 223/223/220 224/224/221 198/198/161
f 223/223/220 198/198/161 196/196/195
f 224/224/221 225/225/222 200/200/161
f 224/224/221 200/200/161 198/198/161
f 225/225/222 226/226/223 202/202/199
f 225/225/222 202/202/199 200/200/161
f 2/2/2 227/227/224 228/228/225
f 2/2/2 228/228/225 229/229/226
f 5/5/5 230/230/227 231/231/228
f 5/5/5 231/231/228 232/232/229
f 131/131/131 233/233/230 234/234/231
f 131/131/131 234/234/231 235/235/232
f 154/154/154 236/236/233 237/237/234
f 154/154/154 237/237/234 238/238/235
f 9/9/9 239/239/236 240/240/237
f 9/9/9 240/240/237 241/241/238
f 12/12/12 242/242/239 243/243/240
f 12/12/12 243/243/240 244/244/241
f 156/156/156 245/245/242 246/246/243
f 156/156/156 246/246/243 247/247/244
f 157/157/157 248/248/245 249/249/246
f 157/157/157 249/249/246 250/250/247
f 159/159/159 244/244/241 243/243/240
f 159/159/159 243/243/240 251/251/248
f 203/203/200 252/252/249 228/228/225
f 203/203/200 228/228/225 227/227/224
f 204/204/201 253/253/250 231/231/228
f 204/204/201 231/231/228 230/230/227
f 226/226/223 241/241/238 240/240/237
f 226/226/223 240/240/237 254/254/251
f 2/2/2 1/1/1 255/255/252
f 2/2/2 255/255/252 227/227/224
f 3/3/3 2/2/2 229/229/226
f 3/3/3 229/229/226 256/256/253
f 13/13/13 7/7/7 257/257/254
f 13/13/13 257/257/254 258/258/255
f 8/8/8 14/14/14 259/259/256
f 8/8/8 259/259/256 260/260/257
f 15/15/15 18/18/18 261/261/258
f 15/15/15 261/261/258 262/262/259
f 17/17/17 16/16/16 263/263/260
f 17/17/17 263/263/260 264/264/261
f 19/19/19 22/22/22 265/265/262
f 19/19/19 265/265/262 266/266/263
f 21/21/21 20/20/20 267/267/264
f 21/21/21 267/267/264 268/268/265
f 23/23/23 26/26/26 269/269/266
f 23/23/23 269/269/266 270/270/267
f 25/25/25 24/24/24 271/271/268
f 25/25/25 271/271/268 272/272/269
f 27/27/27 30/30/30 273/273/270
f 27/27/27 273/273/270 274/274/271
f 29/29/29 28/28/28 275/275/272
f 29/29/29 275/275/272 276/276/273
f 32/32/32 31/31/31 277/277/274
f 32/32/32 277/277/274 278/278/275
f 34/34/34 33/33/33 279/279/276
f 34/34/34 279/279/276 280/280/277
f 36/36/36 35/35/35 281/281/278
f 36/36/36 281/281/278 282/282/279
f 38/38/38 37/37/37 283/283/280
f 38/38/38 283/283/280 284/284/281
f 40/40/40 39/39/39 285/285/282
f 40/40/40 285/285/282 286/286/283
f 42/42/42 41/41/41 287/287/284
f 42/42/42 287/287/284 288/288/285
f 44/44/44 43/43/43 289/289/286
f 44/44/44 289/289/286 290/290/287
f 46/46/46 45/45/45 291/291/288
f 46/46/46 291/291/288 292/292/289
f 48/48/48 47/47/47 293/293/290
f 48/48/48 293/293/290 294/294/291
f 50/50/50 49/49/49 295/295/292
f 50/50/50 295/295/292 296/296/293
f 5/5/5 4/4/4 297/297/294
f 5/5/5 297/297/294 230/230/227
f 6/6/6 5/5/5 232/232/229
f 6/6/6 232/232/229 298/298/295
f 51/51/51 10/10/10 299/299/296
f 51/51/51 299/299/296 300/300/297
f 11/11/11 52/52/52 301/301/298
f 11/11/11 301/301/298 302/302/299
f 53/53/53 56/56/56 303/303/300
f 53/53/53 303/303/300 304/304/301
f 55/55/55 54/54/54 305/305/302
f 55/55/55 305/305/302 306/306/303
f 57/57/57 60/60/60 307/307/304
f 57/57/57 307/307/304 308/308/305
f 59/59/59 58/58/58 309/309/306
f 59/59/59 309/309/306 310/310/307
f 61/61/61 64/64/64 311/311/308
f 61/61/61 311/311/308 312/312/309
f 63/63/63 62/62/62 313/313/310
f 63/63/63 313/313/310 314/314/311
f 65/65/65 68/68/68 315/315/312
f 65/65/65 315/315/312 316/316/313
f 67/67/67 66/66/66 317/317/314
f 67/67/67 317/317/314 318/318/315
f 70/70/70 69/69/69 319/319/316
f 70/70/70 319/319/316 320/320/317
f 72/72/72 71/71/71 321/321/318
f 72/72/72 321/321/318 322/322/319
f 74/74/74 73/73/73 323/323/320
f 74/74/74 323/323/320 324/324/321
f 76/76/76 75/75/75 325/325/322
f 76/76/76 325/325/322 326/326/323
f 78/78/78 77/77/77 327/327/324
f 78/78/78 327/327/324 328/328/325
f 80/80/80 79/79/79 329/329/326
f 80/80/80 329/329/326 330/330/327
f 82/82/82 81/81/81 331/331/328
f 82/82/82 331/331/328 332/332/329
f 84/84/84 83/83/83 333/333/330
f 84/84/84 333/333/330 334/334/331
f 86/86/86 85/85/85 335/335/332
f 86/86/86 335/335/332 336/336/333
f 88/88/88 87/87/87 337/337/334
f 88/88/88 337/337/334 338/338/335
f 91/91/91 90/90/90 339/339/336
f 91/91/91 339/339/336 340/340/337
f 95/95/95 94/94/94 341/341/338
f 95/95/95 341/341/338 342/342/339
f 99/99/99 98/98/98 343/343/340
f 99/99/99 343/343/340 344/344/341
f 103/103/103 102/102/102 345/345/342
f 103/103/103 345/345/342 346/346/343
f 107/107/107 106/106/106 347/347/344
f 107/107/107 347/347/344 348/348/345
f 111/111/111 110/110/110 349/349/346
f 111/111/111 349/349/346 350/350/347
f 115/115/115 114/114/114 351/351/348
f 115/115/115 351/351/348 352/352/349
f 119/119/119 118/118/118 353/353/350
f 119/119/119 353/353/350 354/354/351
f 123/123/123 122/122/122 355/355/352
f 123/123/123 355/355/352 356/356/353
f 127/127/127 126/126/126 357/357/354
f 127/127/127 357/357/354 358/358/355
f 131/131/131 130/130/130 359/359/356
f 131/131/131 359/359/356 233/233/230
f 132/132/132 131/131/131 235/235/232
f 132/132/132 235/235/232 360/360/357
f 134/134/134 133/133/133 361/361/358
f 134/134/134 361/361/358 362/362/359
f 136/136/136 135/135/135 363/363/360
f 136/136/136 363/363/360 364/364/361
f 138/138/138 137/137/137 365/365/362
f 138/138/138 365/365/362 366/366/363
f 140/140/140 139/139/139 367/367/364
f 140/140/140 367/367/364 368/368/365
f 142/142/142 141/141/141 369/369/366
f 142/142/142 369/369/366 370/370/367
f 144/144/144 143/143/143 371/371/368
f 144/144/144 371/371/368 372/372/369
f 146/146/146 145/145/145 373/373/370
f 146/146/146 373/373/370 374/374/371
f 148/148/148 147/147/147 375/375/372
f 148/148/148 375/375/372 376/376/373
f 150/150/150 149/149/149 377/377/374
f 150/150/150 377/377/374 378/378/375
f 152/152/152 151/151/151 379/379/376
f 152/152/152 379/379/376 380/380/377
f 154/154/154 153/153/153 381/381/378
f 154/154/154 381/381/378 236/236/233
f 155/155/155 154/154/154 238/238/235
f 155/155/155 238/238/235 382/382/379
f 47/47/47 44/44/44 290/290/287
f 47/47/47 290/290/287 293/293/290
f 45/45/45 50/50/50 296/296/293
f 45/45/45 296/296/293 291/291/288
f 60/60/60 53/53/53 304/304/301
f 60/60/60 304/304/301 307/307/304
f 54/54/54 59/59/59 310/310/307
f 54/54/54 310/310/307 305/305/302
f 122/122/122 127/127/127 358/358/355
f 122/122/122 358/358/355 355/355/352
f 135/135/135 138/138/138 366/366/363
f 135/135/135 366/366/363 363/363/360
f 43/43/43 40/40/40 286/286/283
f 43/43/43 286/286/283 289/289/286
f 41/41/41 46/46/46 292/292/289
f 41/41/41 292/292/289 287/287/284
f 64/64/64 57/57/57 308/308/305
f 64/64/64 308/308/305 311/311/308
f 58/58/58 63/63/63 314/314/311
f 58/58/58 314/314/311 309/309/306
f 118/118/118 123/123/123 356/356/353
f 118/118/118 356/356/353 353/353/350
f 137/137/137 140/140/140 368/368/365
f 137/137/137 368/368/365 365/365/362
f 39/39/39 36/36/36 282/282/279
f 39/39/39 282/282/279 285/285/282
f 37/37/37 42/42/42 288/288/285
f 37/37/37 288/288/285 283/283/280
f 68/68/68 61/61/61 312/312/309
f 68/68/68 312/312/309 315/315/312
f 62/62/62 67/67/67 318/318/315
f 62/62/62 318/318/315 313/313/310
f 114/114/114 119/119/119 354/354/351
f 114/114/114 354/354/351 351/351/348
f 139/139/139 142/142/142 370/370/367
f 139/139/139 370/370/367 367/367/364
f 35/35/35 32/32/32 278/278/275
f 35/35/35 278/278/275 281/281/278
f 33/33/33 38/38/38 284/284/281
f 33/33/33 284/284/281 279/279/276
f 69/69/69 65/65/65 316/316/313
f 69/69/69 316/316/313 319/319/316
f 66/66/66 72/72/72 322/322/319
f 66/66/66 322/322/319 317/317/314
f 110/110/110 115/115/115 352/352/349
f 110/110/110 352/352/349 349/349/346
f 141/141/141 144/144/144 372/372/369
f 141/141/141 372/372/369 369/369/366
f 31/31/31 27/27/27 274/274/271
f 31/31/31 274/274/271 277/277/274
f 28/28/28 34/34/34 280/280/277
f 28/28/28 280/280/277 275/275/272
f 73/73/73 70/70/70 320/320/317
f 73/73/73 320/320/317 323/323/320
f 71/71/71 76/76/76 326/326/323
f 71/71/71 326/326/323 321/321/318
f 106/106/106 111/111/111 350/350/347
f 106/106/106 350/350/347 347/347/344
f 143/143/143 146/146/146 374/374/371
f 143/143/143 374/374/371 371/371/368
f 30/30/30 23/23/23 270/270/267
f 30/30/30 270/270/267 273/273/270
f 24/24/24 29/29/29 276/276/273
f 24/24/24 276/276/273 271/271/268
f 77/77/77 74/74/74 324/324/321
f 77/77/77 324/324/321 327/327/324
f 75/75/75 80/80/80 330/330/327
f 75/75/75 330/330/327 325/325/322
f 102/102/102 107/107/107 348/348/345
f 102/102/102 348/348/345 345/345/342
f 145/145/145 148/148/148 376/376/373
f 145/145/145 376/376/373 373/373/370
f 26/26/26 19/19/19 266/266/263
f 26/26/26 266/266/263 269/269/266
f 20/20/20 25/25/25 272/272/269
f 20/20/20 272/272/269 267/267/264
f 81/81/81 78/78/78 328/328/325
f 81/81/81 328/328/325 331/331/328
f 79/79/79 84/84/84 334/334/331
f 79/79/79 334/334/331 329/329/326
f 98/98/98 103/103/103 346/346/343
f 98/98/98 346/346/343 343/343/340
f 147/147/147 150/150/150 378/378/375
f 147/147/147 378/378/375 375/375/372
f 22/22/22 15/15/15 262/262/259
f 22/22/22 262/262/259 265/265/262
f 16/16/16 21/21/21 268/268/265
f 16/16/16 268/268/265 263/263/260
f 85/85/85 82/82/82 332/332/329
f 85/85/85 332/332/329 335/335/332
f 83/83/83 88/88/88 338/338/335
f 83/83/83 338/338/335 333/333/330
f 94/94/94 99/99/99 344/344/341
f 94/94/94 344/344/341 341/341/338
f 149/149/149 152/152/152 380/380/377
f 149/149/149 380/380/377 377/377/374
f 18/18/18 13/13/13 258/258/255
f 18/18/18 258/258/255 261/261/258
f 14/14/14 17/17/17 264/264/261
f 14/14/14 264/264/261 259/259/256
f 1/1/1 86/86/86 336/336/333
f 1/1/1 336/336/333 255/255/252
f 87/87/87 3/3/3 256/256/253
f 87/87/87 256/256/253 337/337/334
f 90/90/90 95/95/95 342/342/339
f 90/90/90 342/342/339 339/339/336
f 151/151/151 155/155/155 382/382/379
f 151/151/151 382/382/379 379/379/376
f 4/4/4 48/48/48 294/294/291
f 4/4/4 294/294/291 297/297/294
f 49/49/49 6/6/6 298/298/295
f 49/49/49 298/298/295 295/295/292
f 56/56/56 51/51/51 300/300/297
f 56/56/56 300/300/297 303/303/300
f 52/52/52 55/55/55 306/306/303
f 52/52/52 306/306/303 301/301/298
f 126/126/126 132/132/132 360/360/357
f 126/126/126 360/360/357 357/357/354
f 133/133/133 136/136/136 364/364/361
f 133/133/133 364/364/361 361/361/358
f 9/9/9 8/8/8 260/260/257
f 9/9/9 260/260/257 239/239/236
f 7/7/7 9/9/9 241/241/238
f 7/7/7 241/241/238 257/257/254
f 12/12/12 11/11/11 302/302/299
f 12/12/12 302/302/299 242/242/239
f 10/10/10 12/12/12 244/244/241
f 10/10/10 244/244/241 299/299/296
f 156/156/156 91/91/91 340/340/337
f 156/156/156 340/340/337 245/245/242
f 153/153/153 156/156/156 247/247/244
f 153/153/153 247/247/244 381/381/378
f 157/157/157 134/134/134 362/362/359
f 157/157/157 362/362/359 248/248/245
f 130/130/130 157/157/157 250/250/247
f 130/130/130 250/250/247 359/359/356
f 159/159/159 158/158/158 299/299/296
f 159/159/159 299/299/296 244/244/241
f 160/160/160 159/159/159 251/251/248
f 160/160/160 251/251/248 383/383/380
f 158/158/158 162/162/162 300/300/297
f 158/158/158 300/300/297 299/299/296
f 162/162/162 165/165/164 303/303/300
f 162/162/162 303/303/300 300/300/297
f 165/165/164 167/167/166 304/304/301
f 165/165/164 304/304/301 303/303/300
f 167/167/166 169/169/168 307/307/304
f 167/167/166 307/307/304 304/304/301
f 169/169/168 171/171/170 308/308/305
f 169/169/168 308/308/305 307/307/304
f 171/171/170 173/173/172 311/311/308
f 171/171/170 311/311/308 308/308/305
f 173/173/172 175/175/174 312/312/309
f 173/173/172 312/312/309 311/311/308
f 175/175/174 177/177/176 315/315/312
f 175/175/174 315/315/312 312/312/309
f 177/177/176 179/179/178 316/316/313
f 177/177/176 316/316/313 315/315/312
f 179/179/178 181/181/180 319/319/316
f 179/179/178 319/319/316 316/316/313
f 181/181/180 183/183/182 320/320/317
f 181/181/180 320/320/317 319/319/316
f 183/183/182 185/185/184 323/323/320
f 183/183/182 323/323/320 320/320/317
f 185/185/184 187/187/186 324/324/321
f 185/185/184 324/324/321 323/323/320
f 187/187/186 189/189/188 327/327/324
f 187/187/186 327/327/324 324/324/321
f 189/189/188 191/191/190 328/328/325
f 189/189/188 328/328/325 327/327/324
f 191/191/190 193/193/192 331/331/328
f 191/191/190 331/331/328 328/328/325
f 193/193/192 195/195/194 332/332/329
f 193/193/192 332/332/329 331/331/328
f 195/195/194 197/197/196 335/335/332
f 195/195/194 335/335/332 332/332/329
f 197/197/196 199/199/197 336/336/333
f 197/197/196 336/336/333 335/335/332
f 199/199/197 201/201/198 255/255/252
f 199/199/197 255/255/252 336/336/333
f 201/201/198 203/203/200 227/227/224
f 201/201/198 227/227/224 255/255/252
f 203/203/200 202/202/199 384/384/381
f 203/203/200 384/384/381 252/252/249
f 204/204/201 160/160/160 383/383/380
f 204/204/201 383/383/380 253/253/250
f 205/205/202 204/204/201 230/230/227
f 205/205/202 230/230/227 297/297/294
f 206/206/203 205/205/202 297/297/294
f 206/206/203 297/297/294 294/294/291
f 207/207/204 206/206/203 294/294/291
f 207/207/204 294/294/291 293/293/290
f 208/208/205 207/207/204 293/293/290
f 208/208/205 293/293/290 290/290/287
f 209/209/206 208/208/205 290/290/287
f 209/209/206 290/290/287 289/289/286
f 210/210/207 209/209/206 289/289/286
f 210/210/207 289/289/286 286/286/283
f 211/211/208 210/210/207 286/286/283
f 211/211/208 286/286/283 285/285/282
f 212/212/209 211/211/208 285/285/282
f 212/212/209 285/285/282 282/282/279
f 213/213/210 212/212/209 282/282/279
f 213/213/210 282/282/279 281/281/278
f 214/214/211 213/213/210 281/281/278
f 214/214/211 281/281/278 278/278/275
f 215/215/212 214/214/211 278/278/275
f 215/215/212 278/278/275 277/277/274
f 216/216/213 215/215/212 277/277/274
f 216/216/213 277/277/274 274/274/271
f 217/217/214 216/216/213 274/274/271
f 217/217/214 274/274/271 273/273/270
f 218/218/215 217/217/214 273/273/270
f 218/218/215 273/273/270 270/270/267
f 219/219/216 218/218/215 270/270/267
f 219/219/216 270/270/267 269/269/266
f 220/220/217 219/219/216 269/269/266
f 220/220/217 269/269/266 266/266/263
f 221/221/218 220/220/217 266/266/263
f 221/221/218 266/266/263 265/265/262
f 222/222/219 221/221/218 265/265/262
f 222/222/219 265/265/262 262/262/259
f 223/223/220 222/222/219 262/262/259
f 223/223/220 262/262/259 261/261/258
f 224/224/221 223/223/220 261/261/258
f 224/224/221 261/261/258 258/258/255
f 225/225/222 224/224/221 258/258/255
f 225/225/222 258/258/255 257/257/254
f 226/226/223 225/225/222 257/257/254
f 226/226/223 257/257/254 241/241/238
f 202/202/199 226/226/223 254/254/251
f 202/202/199 254/254/251 384/384/381
